<svg width="256" height="256" viewBox="0 0 256 256" fill="none" xmlns="http://www.w3.org/2000/svg">
    <path d="M184.049 88.1065C176.396 83.6882 166.61 86.3102 162.192 93.9629C157.774 101.616 160.396 111.401 168.049 115.819L189.118 127.984L168.003 140.174C160.35 144.593 157.728 154.378 162.146 162.031C166.565 169.684 176.35 172.306 184.003 167.887L229.036 141.887C231.399 140.523 233.282 138.647 234.626 136.481C234.733 136.311 234.837 136.138 234.938 135.963C239.357 128.31 236.735 118.525 229.082 114.106L184.049 88.1065Z"
          fill="#2454FF"/>
    <path d="M72.036 88.1065C79.6887 83.6882 89.4741 86.3102 93.8924 93.9629C98.3107 101.616 95.6887 111.401 88.036 115.819L66.9668 127.984L88.0819 140.174C95.7346 144.593 98.3566 154.378 93.9383 162.031C89.5201 169.684 79.7346 172.306 72.0819 167.887L27.0486 141.887C24.6859 140.523 22.8027 138.647 21.4582 136.481C21.3515 136.311 21.2475 136.138 21.1463 135.963C16.728 128.31 19.35 118.525 27.0027 114.106L72.036 88.1065Z"
          fill="#2454FF"/>
    <path d="M124.969 77.4548C127.256 68.9194 136.029 63.854 144.564 66.1411V66.1411C153.1 68.4282 158.165 77.2016 155.878 85.737L131.032 178.466C128.744 187.001 119.971 192.067 111.436 189.78V189.78C102.9 187.493 97.8348 178.719 100.122 170.184L124.969 77.4548Z"
          fill="#2CDA9D"/>
</svg>
