<svg width="227" height="205" viewBox="0 0 227 205" fill="none" xmlns="http://www.w3.org/2000/svg">
    <path d="M124 125C124 136.046 115.046 145 104 145C92.9543 145 84 136.046 84 125C84 113.954 92.9543 105 104 105C115.046 105 124 113.954 124 125Z"
          fill="#2CDA9D"/>
    <path d="M186 185C186 196.046 177.046 205 166 205C154.954 205 146 196.046 146 185C146 173.954 154.954 165 166 165C177.046 165 186 173.954 186 185Z"
          fill="#2CDA9D"/>
    <path fill-rule="evenodd" clip-rule="evenodd"
          d="M42 60C51.9411 60 60 51.9411 60 42C60 32.0589 51.9411 24 42 24C32.0589 24 24 32.0589 24 42C24 51.9411 32.0589 60 42 60ZM42 84C65.196 84 84 65.196 84 42C84 18.804 65.196 0 42 0C18.804 0 0 18.804 0 42C0 65.196 18.804 84 42 84Z"
          fill="#2CDA9D"/>
    <path fill-rule="evenodd" clip-rule="evenodd"
          d="M185 80C194.941 80 203 71.9411 203 62C203 52.0589 194.941 44 185 44C175.059 44 167 52.0589 167 62C167 71.9411 175.059 80 185 80ZM185 104C208.196 104 227 85.196 227 62C227 38.804 208.196 20 185 20C161.804 20 143 38.804 143 62C143 85.196 161.804 104 185 104Z"
          fill="#2CDA9D"/>
</svg>
