<svg width="208" height="192" viewBox="0 0 208 192" fill="none" xmlns="http://www.w3.org/2000/svg">
    <path d="M146 160C146 148.954 154.954 140 166 140C177.046 140 186 148.954 186 160C186 171.046 177.046 180 166 180C154.954 180 146 171.046 146 160Z"
          fill="#2CDA9D"/>
    <path d="M84 108C84 96.9543 92.9543 88 104 88C115.046 88 124 96.9543 124 108C124 119.046 115.046 128 104 128C92.9543 128 84 119.046 84 108Z"
          fill="#2CDA9D"/>
    <path fill-rule="evenodd" clip-rule="evenodd"
          d="M42 24C32.0589 24 24 32.0589 24 42C24 51.9411 32.0589 60 42 60C51.9411 60 60 51.9411 60 42C60 32.0589 51.9411 24 42 24ZM42 0C18.804 0 0 18.804 0 42C0 65.196 18.804 84 42 84C65.196 84 84 65.196 84 42C84 18.804 65.196 0 42 0Z"
          fill="#2CDA9D"/>
    <path fill-rule="evenodd" clip-rule="evenodd"
          d="M166 24C156.059 24 148 32.0589 148 42C148 51.9411 156.059 60 166 60C175.941 60 184 51.9411 184 42C184 32.0589 175.941 24 166 24ZM166 0C142.804 0 124 18.804 124 42C124 65.196 142.804 84 166 84C189.196 84 208 65.196 208 42C208 18.804 189.196 0 166 0Z"
          fill="#2CDA9D"/>
    <path fill-rule="evenodd" clip-rule="evenodd"
          d="M32 146.286C24.4258 146.286 18.2857 152.426 18.2857 160C18.2857 167.574 24.4258 173.714 32 173.714C39.5742 173.714 45.7143 167.574 45.7143 160C45.7143 152.426 39.5742 146.286 32 146.286ZM32 128C14.3269 128 -1.19209e-06 142.327 -1.19209e-06 160C-1.19209e-06 177.673 14.3269 192 32 192C49.6731 192 64 177.673 64 160C64 142.327 49.6731 128 32 128Z"
          fill="#2CDA9D"/>
</svg>
