<svg width="1920" height="656" viewBox="0 0 1920 656" fill="none" xmlns="http://www.w3.org/2000/svg">
    <g clip-path="url(#clip0_13_62)">
        <mask id="mask0_13_62" style="mask-type:luminance" maskUnits="userSpaceOnUse" x="597" y="-44" width="889"
              height="700">
            <path d="M812.542 73.5305L604.433 72.2048C603.48 72.1862 602.544 71.9487 601.698 71.5099C600.852 71.0712 600.118 70.4435 599.554 69.6754C595.819 64.3748 596.181 59.4753 600.638 54.9778C601.193 54.4055 601.851 53.9508 602.576 53.6404C603.3 53.3299 604.075 53.1705 604.854 53.1712L695.387 52.569C696.17 52.569 696.945 52.4129 697.669 52.1102C698.392 51.8075 699.049 51.3637 699.603 50.8044C700.157 50.245 700.596 49.5815 700.896 48.8507C701.195 48.1199 701.35 47.3366 701.35 46.5456V-35.8553C701.35 -36.8074 701.579 -37.7469 702.02 -38.5957C702.46 -39.4444 703.097 -40.1782 703.879 -40.7346C717.553 -50.5528 720.805 -36.036 720.805 -26.0974C720.845 -2.24457 720.946 21.6284 721.107 45.5214C721.123 47.1084 721.764 48.6253 722.892 49.7419C724.02 50.8585 725.543 51.4846 727.13 51.4845H812.663C814.26 51.4845 815.792 50.8565 816.922 49.7382C818.052 48.6199 818.686 47.1029 818.686 45.5214L819.108 -36.6384C819.11 -37.8032 819.447 -38.9411 820.077 -39.914C820.708 -40.887 821.606 -41.6532 822.662 -42.1199C831.877 -46.1556 837.841 -41.156 838.322 -31.4583C839.567 -5.83864 840.19 19.7811 840.19 45.4008C840.19 46.9983 840.824 48.5307 841.954 49.6603C843.084 50.7899 844.616 51.4242 846.213 51.4242L1184.25 51.6051C1185.82 51.6048 1187.34 52.2227 1188.47 53.3264C1189.59 54.4301 1190.24 55.9314 1190.27 57.5079L1192.26 146.474C1192.29 148.051 1192.94 149.552 1194.07 150.656C1195.19 151.759 1196.71 152.377 1198.28 152.377H1283.94C1285.53 152.377 1287.07 151.749 1288.19 150.631C1289.32 149.512 1289.96 147.995 1289.96 146.414C1290.16 121.075 1290.24 95.8367 1290.2 70.6989C1290.14 60.8205 1294.06 47.5089 1306.76 56.6043C1307.53 57.1686 1308.16 57.9022 1308.6 58.7484C1309.04 59.5945 1309.28 60.5307 1309.29 61.4836L1310.8 246.945C1310.82 248.537 1311.46 250.06 1312.58 251.186C1313.71 252.313 1315.23 252.952 1316.82 252.968L1401.51 253.33C1402.31 253.338 1403.1 253.188 1403.84 252.889C1404.57 252.59 1405.25 252.147 1405.81 251.587C1406.38 251.027 1406.83 250.36 1407.13 249.625C1407.44 248.891 1407.6 248.103 1407.6 247.306V62.2064C1407.6 61.2542 1407.83 60.3148 1408.27 59.466C1408.71 58.6172 1409.34 57.8835 1410.13 57.3271C1423.38 47.6896 1427.29 61.1223 1427.23 71.3621C1426.99 129.95 1427.07 188.538 1427.47 247.126C1427.49 248.718 1428.12 250.241 1429.24 251.367C1430.35 252.494 1431.86 253.133 1433.44 253.149L1479.34 253.691C1480.16 253.696 1480.97 253.872 1481.72 254.208C1482.47 254.543 1483.14 255.032 1483.69 255.642C1484.25 256.253 1484.67 256.973 1484.94 257.756C1485.2 258.54 1485.31 259.371 1485.24 260.197L1484.64 267.364C1484.5 268.866 1483.81 270.262 1482.69 271.277C1481.58 272.292 1480.12 272.852 1478.61 272.846H1316.28C1314.68 272.846 1313.15 273.486 1312.02 274.627C1310.89 275.768 1310.26 277.316 1310.26 278.929L1310.74 350.608C1310.74 352.175 1311.35 353.68 1312.44 354.805C1313.53 355.929 1315.02 356.585 1316.58 356.632C1345.46 357.475 1374.53 357.575 1403.8 356.933C1414.7 356.692 1428.92 359.583 1418.56 374.22C1418 375.002 1417.27 375.64 1416.42 376.08C1415.57 376.52 1414.63 376.75 1413.68 376.75H1316.58C1315.02 376.75 1313.51 377.366 1312.39 378.468C1311.26 379.57 1310.61 381.071 1310.56 382.653L1309.29 439.153C1309.27 440.182 1308.99 441.189 1308.47 442.075C1307.96 442.961 1307.22 443.696 1306.34 444.212C1296.79 449.834 1291.91 447.304 1291.71 436.622C1290.7 384.018 1290.14 331.434 1290.02 278.869C1290.02 277.272 1289.38 275.739 1288.26 274.61C1287.13 273.48 1285.59 272.846 1284 272.846H1198.46C1196.88 272.846 1195.35 273.472 1194.23 274.588C1193.1 275.705 1192.46 277.222 1192.44 278.809L1191.72 343.802C1191.72 345.116 1191.28 346.395 1190.48 347.44C1189.67 348.486 1188.54 349.239 1187.26 349.584C1174.13 352.957 1169.35 346.914 1172.92 331.454C1174.25 325.671 1173.79 307.983 1171.54 278.388C1171.42 276.875 1170.73 275.464 1169.61 274.436C1168.5 273.409 1167.03 272.841 1165.52 272.846H1061.25C1059.65 272.846 1058.12 272.211 1056.99 271.082C1055.86 269.952 1055.23 268.42 1055.23 266.822V179.663C1055.23 178.097 1054.61 176.591 1053.51 175.466C1052.41 174.342 1050.9 173.687 1049.32 173.64L963.489 171.772C962.688 171.756 961.892 171.9 961.147 172.196C960.402 172.491 959.724 172.933 959.152 173.494C958.58 174.055 958.125 174.724 957.815 175.463C957.505 176.201 957.345 176.994 957.345 177.796V358.68C957.345 360.277 957.98 361.81 959.11 362.939C960.239 364.069 961.771 364.703 963.369 364.703H1068.72C1070.32 364.703 1071.85 365.337 1072.98 366.467C1074.11 367.597 1074.74 369.129 1074.74 370.727L1074.8 458.127C1074.8 458.923 1074.96 459.711 1075.27 460.446C1075.57 461.18 1076.02 461.847 1076.59 462.407C1077.15 462.968 1077.82 463.41 1078.56 463.709C1079.3 464.008 1080.09 464.158 1080.89 464.15L1182.44 463.307C1184.04 463.291 1185.58 463.917 1186.72 465.046C1187.86 466.176 1188.51 467.717 1188.52 469.33V476.257C1188.52 477.85 1187.9 479.379 1186.79 480.517C1185.67 481.654 1184.15 482.309 1182.56 482.341L1080.77 483.545C1079.18 483.561 1077.66 484.203 1076.55 485.331C1075.43 486.458 1074.8 487.982 1074.8 489.569V647.202C1074.8 648.819 1074.15 650.379 1073 651.539C1062.7 661.598 1055.11 653.045 1055.11 641.721C1055.35 590.843 1055.33 540.005 1055.05 489.208C1055.05 487.621 1054.42 486.097 1053.3 484.97C1052.19 483.842 1050.67 483.2 1049.08 483.184L963.248 482.461C962.452 482.454 961.663 482.604 960.925 482.903C960.187 483.202 959.516 483.644 958.95 484.204C958.384 484.764 957.935 485.431 957.629 486.166C957.322 486.901 957.164 487.689 957.164 488.485L957.466 568.415C957.466 569.851 956.953 571.24 956.02 572.331C943.552 587.088 935.902 573.475 936.143 561.308C936.625 537.335 936.484 513.401 935.721 489.508C935.674 487.942 935.019 486.457 933.894 485.366C932.77 484.275 931.264 483.665 929.698 483.666H824.83C823.232 483.666 821.7 483.032 820.571 481.902C819.441 480.772 818.807 479.24 818.807 477.642V390.303C818.807 388.705 818.172 387.173 817.042 386.043C815.913 384.914 814.381 384.279 812.783 384.279H720.082C718.987 384.277 717.915 383.978 716.981 383.415C716.047 382.853 715.286 382.048 714.782 381.087C708.999 370.184 717.191 364.763 727.371 364.763C755.882 364.804 784.373 364.703 812.843 364.462C814.425 364.462 815.942 363.828 817.06 362.698C818.178 361.568 818.807 360.036 818.807 358.438V180.145C818.807 178.578 818.197 177.073 817.107 175.949C816.016 174.824 814.53 174.169 812.964 174.122C781.602 173.198 750.641 173.038 720.082 173.64C708.758 173.881 699.242 167.014 709.06 155.991C709.611 155.363 710.286 154.857 711.043 154.505C711.8 154.152 712.622 153.961 713.457 153.943L813.024 151.956C814.611 151.924 816.121 151.267 817.227 150.128C818.332 148.989 818.943 147.459 818.927 145.872L818.505 79.4936C818.505 77.9121 817.877 76.3951 816.759 75.2768C815.64 74.1585 814.124 73.5305 812.542 73.5305ZM937.592 76.2069C937.592 75.7481 937.503 75.2936 937.328 74.8694C937.153 74.4453 936.896 74.0599 936.573 73.7349C936.249 73.4099 935.864 73.1524 935.441 72.9761C935.017 72.7998 934.563 72.7085 934.104 72.7077L841.946 72.5467C841.02 72.5451 840.13 72.9118 839.474 73.5658C838.818 74.2197 838.448 75.1069 838.447 76.0334L838.319 148.797C838.319 149.256 838.408 149.71 838.583 150.134C838.758 150.559 839.015 150.944 839.339 151.269C839.662 151.594 840.047 151.851 840.471 152.028C840.894 152.204 841.348 152.295 841.807 152.296L933.965 152.457C934.891 152.459 935.781 152.092 936.437 151.438C937.093 150.784 937.463 149.897 937.464 148.97L937.592 76.2069ZM1055.48 74.3635C1055.48 74.15 1055.44 73.9384 1055.36 73.7408C1055.28 73.5432 1055.16 73.3636 1055.01 73.2121C1054.86 73.0606 1054.68 72.9401 1054.48 72.8577C1054.28 72.7753 1054.07 72.7327 1053.86 72.732L959.172 72.4018C958.958 72.4011 958.747 72.4421 958.549 72.5231C958.351 72.6042 958.172 72.7234 958.02 72.8739C957.868 73.0244 957.748 73.2033 957.666 73.4003C957.584 73.5974 957.541 73.8088 957.54 74.0224L957.272 150.64C957.271 150.853 957.312 151.065 957.394 151.262C957.475 151.46 957.594 151.64 957.744 151.792C957.895 151.943 958.074 152.063 958.271 152.145C958.468 152.228 958.679 152.271 958.893 152.272L1053.58 152.602C1053.79 152.603 1054.01 152.562 1054.2 152.481C1054.4 152.4 1054.58 152.28 1054.73 152.13C1054.88 151.979 1055 151.801 1055.09 151.604C1055.17 151.406 1055.21 151.195 1055.21 150.981L1055.48 74.3635ZM1172.02 75.7341C1172.02 75.307 1171.93 74.8843 1171.77 74.49C1171.6 74.0957 1171.36 73.7378 1171.06 73.4364C1170.76 73.1349 1170.4 72.8954 1170 72.7327C1169.61 72.57 1169.18 72.4871 1168.76 72.4878L1078.04 72.6459C1077.18 72.6475 1076.36 72.9915 1075.75 73.6025C1075.14 74.2135 1074.8 75.0414 1074.8 75.904L1074.93 149.993C1074.93 150.42 1075.01 150.842 1075.18 151.237C1075.34 151.631 1075.58 151.989 1075.88 152.29C1076.19 152.592 1076.55 152.831 1076.94 152.994C1077.34 153.157 1077.76 153.24 1078.19 153.239L1168.9 153.081C1169.76 153.079 1170.59 152.735 1171.2 152.124C1171.81 151.513 1172.15 150.685 1172.15 149.823L1172.02 75.7341ZM1172.81 177.269C1172.81 176.771 1172.72 176.277 1172.53 175.816C1172.34 175.354 1172.07 174.935 1171.71 174.58C1171.36 174.226 1170.95 173.944 1170.49 173.751C1170.03 173.558 1169.54 173.457 1169.04 173.455L1078.81 172.983C1078.31 172.98 1077.82 173.076 1077.35 173.264C1076.89 173.452 1076.47 173.729 1076.12 174.08C1075.76 174.43 1075.48 174.847 1075.29 175.307C1075.1 175.766 1075 176.259 1074.99 176.758L1074.61 249.158C1074.61 249.656 1074.71 250.15 1074.89 250.611C1075.08 251.073 1075.36 251.493 1075.71 251.847C1076.06 252.201 1076.48 252.483 1076.94 252.676C1077.4 252.869 1077.89 252.97 1078.39 252.972L1168.62 253.445C1169.12 253.447 1169.61 253.352 1170.07 253.164C1170.53 252.975 1170.95 252.698 1171.31 252.348C1171.66 251.997 1171.94 251.58 1172.14 251.12C1172.33 250.661 1172.43 250.168 1172.43 249.67L1172.81 177.269ZM1290.33 176.306C1290.34 175.895 1290.26 175.487 1290.1 175.106C1289.95 174.725 1289.72 174.379 1289.43 174.086C1289.14 173.794 1288.79 173.561 1288.41 173.402C1288.04 173.242 1287.63 173.16 1287.22 173.158L1195.66 172.677C1195.25 172.675 1194.84 172.754 1194.46 172.91C1194.08 173.065 1193.74 173.295 1193.44 173.584C1193.15 173.873 1192.92 174.217 1192.76 174.597C1192.6 174.976 1192.52 175.382 1192.51 175.794L1192.13 249.881C1192.12 250.292 1192.2 250.7 1192.36 251.081C1192.51 251.461 1192.74 251.808 1193.03 252.1C1193.32 252.393 1193.67 252.625 1194.04 252.784C1194.42 252.944 1194.83 253.027 1195.24 253.029L1286.8 253.509C1287.21 253.511 1287.62 253.432 1288 253.276C1288.38 253.121 1288.72 252.892 1289.02 252.603C1289.31 252.313 1289.54 251.969 1289.7 251.59C1289.86 251.211 1289.94 250.804 1289.95 250.393L1290.33 176.306ZM937.25 176.221C937.251 175.881 937.185 175.544 937.056 175.23C936.927 174.915 936.738 174.628 936.498 174.387C936.258 174.146 935.973 173.954 935.659 173.823C935.346 173.692 935.009 173.623 934.669 173.622L841.307 173.297C840.966 173.295 840.629 173.361 840.315 173.49C840 173.619 839.714 173.809 839.472 174.049C839.231 174.288 839.039 174.573 838.908 174.887C838.777 175.201 838.708 175.537 838.707 175.877L838.059 361.88C838.058 362.22 838.123 362.558 838.252 362.872C838.381 363.187 838.571 363.473 838.811 363.715C839.051 363.956 839.335 364.148 839.649 364.279C839.963 364.41 840.299 364.478 840.64 364.48L934.002 364.805C934.342 364.806 934.679 364.741 934.994 364.612C935.309 364.483 935.595 364.293 935.836 364.053C936.078 363.813 936.269 363.529 936.401 363.215C936.532 362.901 936.6 362.565 936.601 362.224L937.25 176.221ZM937.413 385.992C937.414 385.576 937.25 385.178 936.956 384.884C936.663 384.589 936.265 384.424 935.85 384.423L840.319 384.256C839.903 384.256 839.505 384.42 839.211 384.713C838.916 385.006 838.751 385.404 838.75 385.82L838.618 461.474C838.618 461.889 838.782 462.288 839.075 462.582C839.368 462.876 839.766 463.041 840.181 463.042L935.713 463.209C936.128 463.21 936.527 463.045 936.821 462.752C937.115 462.459 937.281 462.062 937.281 461.646L937.413 385.992ZM1055.36 387.04C1055.36 386.7 1055.29 386.363 1055.16 386.048C1055.03 385.734 1054.84 385.448 1054.6 385.206C1054.36 384.965 1054.08 384.773 1053.77 384.642C1053.45 384.51 1053.12 384.442 1052.78 384.441L960.135 384.117C959.795 384.116 959.458 384.182 959.144 384.312C958.829 384.441 958.543 384.63 958.301 384.87C958.06 385.109 957.868 385.395 957.737 385.709C957.606 386.022 957.537 386.359 957.536 386.699L957.276 461.268C957.274 461.609 957.34 461.946 957.469 462.26C957.598 462.575 957.788 462.861 958.028 463.102C958.267 463.344 958.552 463.536 958.866 463.667C959.18 463.798 959.516 463.866 959.856 463.868L1052.5 464.191C1052.84 464.192 1053.17 464.126 1053.49 463.997C1053.8 463.868 1054.09 463.679 1054.33 463.439C1054.57 463.199 1054.76 462.914 1054.89 462.6C1055.03 462.286 1055.09 461.95 1055.1 461.61L1055.36 387.04Z"
                  fill="white"/>
        </mask>
        <g mask="url(#mask0_13_62)">
            <path d="M812.542 73.5305L604.433 72.2048C603.48 72.1862 602.544 71.9487 601.698 71.5099C600.852 71.0712 600.118 70.4435 599.554 69.6754C595.819 64.3748 596.181 59.4753 600.638 54.9778C601.193 54.4055 601.851 53.9508 602.576 53.6404C603.3 53.3299 604.075 53.1705 604.854 53.1712L695.387 52.569C696.17 52.569 696.945 52.4129 697.669 52.1102C698.392 51.8075 699.049 51.3637 699.603 50.8044C700.157 50.245 700.596 49.5815 700.896 48.8507C701.195 48.1199 701.35 47.3366 701.35 46.5456V-35.8553C701.35 -36.8074 701.579 -37.7469 702.02 -38.5957C702.46 -39.4444 703.097 -40.1782 703.879 -40.7346C717.553 -50.5528 720.805 -36.036 720.805 -26.0974C720.845 -2.24457 720.946 21.6284 721.107 45.5214C721.123 47.1084 721.764 48.6253 722.892 49.7419C724.02 50.8585 725.543 51.4846 727.13 51.4845H812.663C814.26 51.4845 815.792 50.8565 816.922 49.7382C818.052 48.6199 818.686 47.1029 818.686 45.5214L819.108 -36.6384C819.11 -37.8032 819.447 -38.9411 820.077 -39.914C820.708 -40.887 821.606 -41.6532 822.662 -42.1199C831.877 -46.1556 837.841 -41.156 838.322 -31.4583C839.567 -5.83864 840.19 19.7811 840.19 45.4008C840.19 46.9983 840.824 48.5307 841.954 49.6603C843.084 50.7899 844.616 51.4242 846.213 51.4242L1184.25 51.6051C1185.82 51.6048 1187.34 52.2227 1188.47 53.3264C1189.59 54.4301 1190.24 55.9314 1190.27 57.5079L1192.26 146.474C1192.29 148.051 1192.94 149.552 1194.07 150.656C1195.19 151.759 1196.71 152.377 1198.28 152.377H1283.94C1285.53 152.377 1287.07 151.749 1288.19 150.631C1289.32 149.512 1289.96 147.995 1289.96 146.414C1290.16 121.075 1290.24 95.8367 1290.2 70.6989C1290.14 60.8205 1294.06 47.5089 1306.76 56.6043C1307.53 57.1686 1308.16 57.9022 1308.6 58.7484C1309.04 59.5945 1309.28 60.5307 1309.29 61.4836L1310.8 246.945C1310.82 248.537 1311.46 250.06 1312.58 251.186C1313.71 252.313 1315.23 252.952 1316.82 252.968L1401.51 253.33C1402.31 253.338 1403.1 253.188 1403.84 252.889C1404.57 252.59 1405.25 252.147 1405.81 251.587C1406.38 251.027 1406.83 250.36 1407.13 249.625C1407.44 248.891 1407.6 248.103 1407.6 247.306V62.2064C1407.6 61.2542 1407.83 60.3148 1408.27 59.466C1408.71 58.6172 1409.34 57.8835 1410.13 57.3271C1423.38 47.6896 1427.29 61.1223 1427.23 71.3621C1426.99 129.95 1427.07 188.538 1427.47 247.126C1427.49 248.718 1428.12 250.241 1429.24 251.367C1430.35 252.494 1431.86 253.133 1433.44 253.149L1479.34 253.691C1480.16 253.696 1480.97 253.872 1481.72 254.208C1482.47 254.543 1483.14 255.032 1483.69 255.642C1484.25 256.253 1484.67 256.973 1484.94 257.756C1485.2 258.54 1485.31 259.371 1485.24 260.197L1484.64 267.364C1484.5 268.866 1483.81 270.262 1482.69 271.277C1481.58 272.292 1480.12 272.852 1478.61 272.846H1316.28C1314.68 272.846 1313.15 273.486 1312.02 274.627C1310.89 275.768 1310.26 277.316 1310.26 278.929L1310.74 350.608C1310.74 352.175 1311.35 353.68 1312.44 354.805C1313.53 355.929 1315.02 356.585 1316.58 356.632C1345.46 357.475 1374.53 357.575 1403.8 356.933C1414.7 356.692 1428.92 359.583 1418.56 374.22C1418 375.002 1417.27 375.64 1416.42 376.08C1415.57 376.52 1414.63 376.75 1413.68 376.75H1316.58C1315.02 376.75 1313.51 377.366 1312.39 378.468C1311.26 379.57 1310.61 381.071 1310.56 382.653L1309.29 439.153C1309.27 440.182 1308.99 441.189 1308.47 442.075C1307.96 442.961 1307.22 443.696 1306.34 444.212C1296.79 449.834 1291.91 447.304 1291.71 436.622C1290.7 384.018 1290.14 331.434 1290.02 278.869C1290.02 277.272 1289.38 275.739 1288.26 274.61C1287.13 273.48 1285.59 272.846 1284 272.846H1198.46C1196.88 272.846 1195.35 273.472 1194.23 274.588C1193.1 275.705 1192.46 277.222 1192.44 278.809L1191.72 343.802C1191.72 345.116 1191.28 346.395 1190.48 347.44C1189.67 348.486 1188.54 349.239 1187.26 349.584C1174.13 352.957 1169.35 346.914 1172.92 331.454C1174.25 325.671 1173.79 307.983 1171.54 278.388C1171.42 276.875 1170.73 275.464 1169.61 274.436C1168.5 273.409 1167.03 272.841 1165.52 272.846H1061.25C1059.65 272.846 1058.12 272.211 1056.99 271.082C1055.86 269.952 1055.23 268.42 1055.23 266.822V179.663C1055.23 178.097 1054.61 176.591 1053.51 175.466C1052.41 174.342 1050.9 173.687 1049.32 173.64L963.489 171.772C962.688 171.756 961.892 171.9 961.147 172.196C960.402 172.491 959.724 172.933 959.152 173.494C958.58 174.055 958.125 174.724 957.815 175.463C957.505 176.201 957.345 176.994 957.345 177.796V358.68C957.345 360.277 957.98 361.81 959.11 362.939C960.239 364.069 961.771 364.703 963.369 364.703H1068.72C1070.32 364.703 1071.85 365.337 1072.98 366.467C1074.11 367.597 1074.74 369.129 1074.74 370.727L1074.8 458.127C1074.8 458.923 1074.96 459.711 1075.27 460.446C1075.57 461.18 1076.02 461.847 1076.59 462.407C1077.15 462.968 1077.82 463.41 1078.56 463.709C1079.3 464.008 1080.09 464.158 1080.89 464.15L1182.44 463.307C1184.04 463.291 1185.58 463.917 1186.72 465.046C1187.86 466.176 1188.51 467.717 1188.52 469.33V476.257C1188.52 477.85 1187.9 479.379 1186.79 480.517C1185.67 481.654 1184.15 482.309 1182.56 482.341L1080.77 483.545C1079.18 483.561 1077.66 484.203 1076.55 485.331C1075.43 486.458 1074.8 487.982 1074.8 489.569V647.202C1074.8 648.819 1074.15 650.379 1073 651.539C1062.7 661.598 1055.11 653.045 1055.11 641.721C1055.35 590.843 1055.33 540.005 1055.05 489.208C1055.05 487.621 1054.42 486.097 1053.3 484.97C1052.19 483.842 1050.67 483.2 1049.08 483.184L963.248 482.461C962.452 482.454 961.663 482.604 960.925 482.903C960.187 483.202 959.516 483.644 958.95 484.204C958.384 484.764 957.935 485.431 957.629 486.166C957.322 486.901 957.164 487.689 957.164 488.485L957.466 568.415C957.466 569.851 956.953 571.24 956.02 572.331C943.552 587.088 935.902 573.475 936.143 561.308C936.625 537.335 936.484 513.401 935.721 489.508C935.674 487.942 935.019 486.457 933.894 485.366C932.77 484.275 931.264 483.665 929.698 483.666H824.83C823.232 483.666 821.7 483.032 820.571 481.902C819.441 480.772 818.807 479.24 818.807 477.642V390.303C818.807 388.705 818.172 387.173 817.042 386.043C815.913 384.914 814.381 384.279 812.783 384.279H720.082C718.987 384.277 717.915 383.978 716.981 383.415C716.047 382.853 715.286 382.048 714.782 381.087C708.999 370.184 717.191 364.763 727.371 364.763C755.882 364.804 784.373 364.703 812.843 364.462C814.425 364.462 815.942 363.828 817.06 362.698C818.178 361.568 818.807 360.036 818.807 358.438V180.145C818.807 178.578 818.197 177.073 817.107 175.949C816.016 174.824 814.53 174.169 812.964 174.122C781.602 173.198 750.641 173.038 720.082 173.64C708.758 173.881 699.242 167.014 709.06 155.991C709.611 155.363 710.286 154.857 711.043 154.505C711.8 154.152 712.622 153.961 713.457 153.943L813.024 151.956C814.611 151.924 816.121 151.267 817.227 150.128C818.332 148.989 818.943 147.459 818.927 145.872L818.505 79.4936C818.505 77.9121 817.877 76.3951 816.759 75.2768C815.64 74.1585 814.124 73.5305 812.542 73.5305ZM937.592 76.2069C937.592 75.7481 937.503 75.2936 937.328 74.8694C937.153 74.4453 936.896 74.0599 936.573 73.7349C936.249 73.4099 935.864 73.1524 935.441 72.9761C935.017 72.7998 934.563 72.7085 934.104 72.7077L841.946 72.5467C841.02 72.5451 840.13 72.9118 839.474 73.5658C838.818 74.2197 838.448 75.1069 838.447 76.0334L838.319 148.797C838.319 149.256 838.408 149.71 838.583 150.134C838.758 150.559 839.015 150.944 839.339 151.269C839.662 151.594 840.047 151.851 840.471 152.028C840.894 152.204 841.348 152.295 841.807 152.296L933.965 152.457C934.891 152.459 935.781 152.092 936.437 151.438C937.093 150.784 937.463 149.897 937.464 148.97L937.592 76.2069ZM1055.48 74.3635C1055.48 74.15 1055.44 73.9384 1055.36 73.7408C1055.28 73.5432 1055.16 73.3636 1055.01 73.2121C1054.86 73.0606 1054.68 72.9401 1054.48 72.8577C1054.28 72.7753 1054.07 72.7327 1053.86 72.732L959.172 72.4018C958.958 72.4011 958.747 72.4421 958.549 72.5231C958.351 72.6042 958.172 72.7234 958.02 72.8739C957.868 73.0244 957.748 73.2033 957.666 73.4003C957.584 73.5974 957.541 73.8088 957.54 74.0224L957.272 150.64C957.271 150.853 957.312 151.065 957.394 151.262C957.475 151.46 957.594 151.64 957.744 151.792C957.895 151.943 958.074 152.063 958.271 152.145C958.468 152.228 958.679 152.271 958.893 152.272L1053.58 152.602C1053.79 152.603 1054.01 152.562 1054.2 152.481C1054.4 152.4 1054.58 152.28 1054.73 152.13C1054.88 151.979 1055 151.801 1055.09 151.604C1055.17 151.406 1055.21 151.195 1055.21 150.981L1055.48 74.3635ZM1172.02 75.7341C1172.02 75.307 1171.93 74.8843 1171.77 74.49C1171.6 74.0957 1171.36 73.7378 1171.06 73.4364C1170.76 73.1349 1170.4 72.8954 1170 72.7327C1169.61 72.57 1169.18 72.4871 1168.76 72.4878L1078.04 72.6459C1077.18 72.6475 1076.36 72.9915 1075.75 73.6025C1075.14 74.2135 1074.8 75.0414 1074.8 75.904L1074.93 149.993C1074.93 150.42 1075.01 150.842 1075.18 151.237C1075.34 151.631 1075.58 151.989 1075.88 152.29C1076.19 152.592 1076.55 152.831 1076.94 152.994C1077.34 153.157 1077.76 153.24 1078.19 153.239L1168.9 153.081C1169.76 153.079 1170.59 152.735 1171.2 152.124C1171.81 151.513 1172.15 150.685 1172.15 149.823L1172.02 75.7341ZM1172.81 177.269C1172.81 176.771 1172.72 176.277 1172.53 175.816C1172.34 175.354 1172.07 174.935 1171.71 174.58C1171.36 174.226 1170.95 173.944 1170.49 173.751C1170.03 173.558 1169.54 173.457 1169.04 173.455L1078.81 172.983C1078.31 172.98 1077.82 173.076 1077.35 173.264C1076.89 173.452 1076.47 173.729 1076.12 174.08C1075.76 174.43 1075.48 174.847 1075.29 175.307C1075.1 175.766 1075 176.259 1074.99 176.758L1074.61 249.158C1074.61 249.656 1074.71 250.15 1074.89 250.611C1075.08 251.073 1075.36 251.493 1075.71 251.847C1076.06 252.201 1076.48 252.483 1076.94 252.676C1077.4 252.869 1077.89 252.97 1078.39 252.972L1168.62 253.445C1169.12 253.447 1169.61 253.352 1170.07 253.164C1170.53 252.975 1170.95 252.698 1171.31 252.348C1171.66 251.997 1171.94 251.58 1172.14 251.12C1172.33 250.661 1172.43 250.168 1172.43 249.67L1172.81 177.269ZM1290.33 176.306C1290.34 175.895 1290.26 175.487 1290.1 175.106C1289.95 174.725 1289.72 174.379 1289.43 174.086C1289.14 173.794 1288.79 173.561 1288.41 173.402C1288.04 173.242 1287.63 173.16 1287.22 173.158L1195.66 172.677C1195.25 172.675 1194.84 172.754 1194.46 172.91C1194.08 173.065 1193.74 173.295 1193.44 173.584C1193.15 173.873 1192.92 174.217 1192.76 174.597C1192.6 174.976 1192.52 175.382 1192.51 175.794L1192.13 249.881C1192.12 250.292 1192.2 250.7 1192.36 251.081C1192.51 251.461 1192.74 251.808 1193.03 252.1C1193.32 252.393 1193.67 252.625 1194.04 252.784C1194.42 252.944 1194.83 253.027 1195.24 253.029L1286.8 253.509C1287.21 253.511 1287.62 253.432 1288 253.276C1288.38 253.121 1288.72 252.892 1289.02 252.603C1289.31 252.313 1289.54 251.969 1289.7 251.59C1289.86 251.211 1289.94 250.804 1289.95 250.393L1290.33 176.306ZM937.25 176.221C937.251 175.881 937.185 175.544 937.056 175.23C936.927 174.915 936.738 174.628 936.498 174.387C936.258 174.146 935.973 173.954 935.659 173.823C935.346 173.692 935.009 173.623 934.669 173.622L841.307 173.297C840.966 173.295 840.629 173.361 840.315 173.49C840 173.619 839.714 173.809 839.472 174.049C839.231 174.288 839.039 174.573 838.908 174.887C838.777 175.201 838.708 175.537 838.707 175.877L838.059 361.88C838.058 362.22 838.123 362.558 838.252 362.872C838.381 363.187 838.571 363.473 838.811 363.715C839.051 363.956 839.335 364.148 839.649 364.279C839.963 364.41 840.299 364.478 840.64 364.48L934.002 364.805C934.342 364.806 934.679 364.741 934.994 364.612C935.309 364.483 935.595 364.293 935.836 364.053C936.078 363.813 936.269 363.529 936.401 363.215C936.532 362.901 936.6 362.565 936.601 362.224L937.25 176.221ZM937.413 385.992C937.414 385.576 937.25 385.178 936.956 384.884C936.663 384.589 936.265 384.424 935.85 384.423L840.319 384.256C839.903 384.256 839.505 384.42 839.211 384.713C838.916 385.006 838.751 385.404 838.75 385.82L838.618 461.474C838.618 461.889 838.782 462.288 839.075 462.582C839.368 462.876 839.766 463.041 840.181 463.042L935.713 463.209C936.128 463.21 936.527 463.045 936.821 462.752C937.115 462.459 937.281 462.062 937.281 461.646L937.413 385.992ZM1055.36 387.04C1055.36 386.7 1055.29 386.363 1055.16 386.048C1055.03 385.734 1054.84 385.448 1054.6 385.206C1054.36 384.965 1054.08 384.773 1053.77 384.642C1053.45 384.51 1053.12 384.442 1052.78 384.441L960.135 384.117C959.795 384.116 959.458 384.182 959.144 384.312C958.829 384.441 958.543 384.63 958.301 384.87C958.06 385.109 957.868 385.395 957.737 385.709C957.606 386.022 957.537 386.359 957.536 386.699L957.276 461.268C957.274 461.609 957.34 461.946 957.469 462.26C957.598 462.575 957.788 462.861 958.028 463.102C958.267 463.344 958.552 463.536 958.866 463.667C959.18 463.798 959.516 463.866 959.856 463.868L1052.5 464.191C1052.84 464.192 1053.17 464.126 1053.49 463.997C1053.8 463.868 1054.09 463.679 1054.33 463.439C1054.57 463.199 1054.76 462.914 1054.89 462.6C1055.03 462.286 1055.09 461.95 1055.1 461.61L1055.36 387.04Z"
                  stroke="#7B74FF" stroke-opacity="0.1" stroke-width="3.5"/>
        </g>
        <mask id="mask1_13_62" style="mask-type:luminance" maskUnits="userSpaceOnUse" x="1360" y="-44" width="889"
              height="700">
            <path d="M1575.54 73.5305L1367.43 72.2048C1366.48 72.1862 1365.54 71.9487 1364.7 71.5099C1363.85 71.0712 1363.12 70.4435 1362.55 69.6754C1358.82 64.3748 1359.18 59.4753 1363.64 54.9778C1364.19 54.4055 1364.85 53.9508 1365.58 53.6404C1366.3 53.3299 1367.07 53.1705 1367.85 53.1712L1458.39 52.569C1459.17 52.569 1459.94 52.4129 1460.67 52.1102C1461.39 51.8075 1462.05 51.3637 1462.6 50.8044C1463.16 50.245 1463.6 49.5815 1463.9 48.8507C1464.19 48.1199 1464.35 47.3366 1464.35 46.5456V-35.8553C1464.35 -36.8074 1464.58 -37.7469 1465.02 -38.5957C1465.46 -39.4444 1466.1 -40.1782 1466.88 -40.7346C1480.55 -50.5528 1483.8 -36.036 1483.8 -26.0974C1483.84 -2.24457 1483.95 21.6284 1484.11 45.5214C1484.12 47.1084 1484.76 48.6253 1485.89 49.7419C1487.02 50.8585 1488.54 51.4846 1490.13 51.4845H1575.66C1577.26 51.4845 1578.79 50.8565 1579.92 49.7382C1581.05 48.6199 1581.69 47.1029 1581.69 45.5214L1582.11 -36.6384C1582.11 -37.8032 1582.45 -38.9411 1583.08 -39.914C1583.71 -40.887 1584.61 -41.6532 1585.66 -42.1199C1594.88 -46.1556 1600.84 -41.156 1601.32 -31.4583C1602.57 -5.83864 1603.19 19.7811 1603.19 45.4008C1603.19 46.9983 1603.82 48.5307 1604.95 49.6603C1606.08 50.7899 1607.62 51.4242 1609.21 51.4242L1947.25 51.6051C1948.82 51.6048 1950.34 52.2227 1951.47 53.3264C1952.59 54.4301 1953.24 55.9314 1953.27 57.5079L1955.26 146.474C1955.29 148.051 1955.94 149.552 1957.07 150.656C1958.19 151.759 1959.71 152.377 1961.28 152.377H2046.94C2048.53 152.377 2050.07 151.749 2051.19 150.631C2052.32 149.512 2052.96 147.995 2052.96 146.414C2053.16 121.075 2053.24 95.8367 2053.2 70.6989C2053.14 60.8205 2057.06 47.5089 2069.76 56.6043C2070.53 57.1686 2071.16 57.9022 2071.6 58.7484C2072.04 59.5945 2072.28 60.5307 2072.29 61.4836L2073.8 246.945C2073.82 248.537 2074.46 250.06 2075.58 251.186C2076.71 252.313 2078.23 252.952 2079.82 252.968L2164.51 253.33C2165.31 253.338 2166.1 253.188 2166.84 252.889C2167.57 252.59 2168.25 252.147 2168.81 251.587C2169.38 251.027 2169.83 250.36 2170.13 249.625C2170.44 248.891 2170.6 248.103 2170.6 247.306V62.2064C2170.6 61.2542 2170.83 60.3148 2171.27 59.466C2171.71 58.6172 2172.34 57.8835 2173.13 57.3271C2186.38 47.6896 2190.29 61.1223 2190.23 71.3621C2189.99 129.95 2190.07 188.538 2190.47 247.126C2190.49 248.718 2191.12 250.241 2192.24 251.367C2193.35 252.494 2194.86 253.133 2196.44 253.149L2242.34 253.691C2243.16 253.696 2243.97 253.872 2244.72 254.208C2245.47 254.543 2246.14 255.032 2246.69 255.642C2247.25 256.253 2247.67 256.973 2247.94 257.756C2248.2 258.54 2248.31 259.371 2248.24 260.197L2247.64 267.364C2247.5 268.866 2246.81 270.262 2245.69 271.277C2244.58 272.292 2243.12 272.852 2241.61 272.846H2079.28C2077.68 272.846 2076.15 273.486 2075.02 274.627C2073.89 275.768 2073.26 277.316 2073.26 278.929L2073.74 350.608C2073.74 352.175 2074.35 353.68 2075.44 354.805C2076.53 355.929 2078.02 356.585 2079.58 356.632C2108.46 357.475 2137.53 357.575 2166.8 356.933C2177.7 356.692 2191.92 359.583 2181.56 374.22C2181 375.002 2180.27 375.64 2179.42 376.08C2178.57 376.52 2177.63 376.75 2176.68 376.75H2079.58C2078.02 376.75 2076.51 377.366 2075.39 378.468C2074.26 379.57 2073.61 381.071 2073.56 382.653L2072.29 439.153C2072.27 440.182 2071.99 441.189 2071.47 442.075C2070.96 442.961 2070.22 443.696 2069.34 444.212C2059.79 449.834 2054.91 447.304 2054.71 436.622C2053.7 384.018 2053.14 331.434 2053.02 278.869C2053.02 277.272 2052.38 275.739 2051.26 274.61C2050.13 273.48 2048.59 272.846 2047 272.846H1961.46C1959.88 272.846 1958.35 273.472 1957.23 274.588C1956.1 275.705 1955.46 277.222 1955.44 278.809L1954.72 343.802C1954.72 345.116 1954.28 346.395 1953.48 347.44C1952.67 348.486 1951.54 349.239 1950.26 349.584C1937.13 352.957 1932.35 346.914 1935.92 331.454C1937.25 325.671 1936.79 307.983 1934.54 278.388C1934.42 276.875 1933.73 275.464 1932.61 274.436C1931.5 273.409 1930.03 272.841 1928.52 272.846H1824.25C1822.65 272.846 1821.12 272.211 1819.99 271.082C1818.86 269.952 1818.23 268.42 1818.23 266.822V179.663C1818.23 178.097 1817.61 176.591 1816.51 175.466C1815.41 174.342 1813.9 173.687 1812.32 173.64L1726.49 171.772C1725.69 171.756 1724.89 171.9 1724.15 172.196C1723.4 172.491 1722.72 172.933 1722.15 173.494C1721.58 174.055 1721.12 174.724 1720.81 175.463C1720.5 176.201 1720.34 176.994 1720.34 177.796V358.68C1720.34 360.277 1720.98 361.81 1722.11 362.939C1723.24 364.069 1724.77 364.703 1726.37 364.703H1831.72C1833.32 364.703 1834.85 365.337 1835.98 366.467C1837.11 367.597 1837.74 369.129 1837.74 370.727L1837.8 458.127C1837.8 458.923 1837.96 459.711 1838.27 460.446C1838.57 461.18 1839.02 461.847 1839.59 462.407C1840.15 462.968 1840.82 463.41 1841.56 463.709C1842.3 464.008 1843.09 464.158 1843.89 464.15L1945.44 463.307C1947.04 463.291 1948.58 463.917 1949.72 465.046C1950.86 466.176 1951.51 467.717 1951.52 469.33V476.257C1951.52 477.85 1950.9 479.379 1949.79 480.517C1948.67 481.654 1947.15 482.309 1945.56 482.341L1843.77 483.545C1842.18 483.561 1840.66 484.203 1839.55 485.331C1838.43 486.458 1837.8 487.982 1837.8 489.569V647.202C1837.8 648.819 1837.15 650.379 1836 651.539C1825.7 661.598 1818.11 653.045 1818.11 641.721C1818.35 590.843 1818.33 540.005 1818.05 489.208C1818.05 487.621 1817.42 486.097 1816.3 484.97C1815.19 483.842 1813.67 483.2 1812.08 483.184L1726.25 482.461C1725.45 482.454 1724.66 482.604 1723.92 482.903C1723.19 483.202 1722.52 483.644 1721.95 484.204C1721.38 484.764 1720.93 485.431 1720.63 486.166C1720.32 486.901 1720.16 487.689 1720.16 488.485L1720.47 568.415C1720.47 569.851 1719.95 571.24 1719.02 572.331C1706.55 587.088 1698.9 573.475 1699.14 561.308C1699.62 537.335 1699.48 513.401 1698.72 489.508C1698.67 487.942 1698.02 486.457 1696.89 485.366C1695.77 484.275 1694.26 483.665 1692.7 483.666H1587.83C1586.23 483.666 1584.7 483.032 1583.57 481.902C1582.44 480.772 1581.81 479.24 1581.81 477.642V390.303C1581.81 388.705 1581.17 387.173 1580.04 386.043C1578.91 384.914 1577.38 384.279 1575.78 384.279H1483.08C1481.99 384.277 1480.91 383.978 1479.98 383.415C1479.05 382.853 1478.29 382.048 1477.78 381.087C1472 370.184 1480.19 364.763 1490.37 364.763C1518.88 364.804 1547.37 364.703 1575.84 364.462C1577.42 364.462 1578.94 363.828 1580.06 362.698C1581.18 361.568 1581.81 360.036 1581.81 358.438V180.145C1581.81 178.578 1581.2 177.073 1580.11 175.949C1579.02 174.824 1577.53 174.169 1575.96 174.122C1544.6 173.198 1513.64 173.038 1483.08 173.64C1471.76 173.881 1462.24 167.014 1472.06 155.991C1472.61 155.363 1473.29 154.857 1474.04 154.505C1474.8 154.152 1475.62 153.961 1476.46 153.943L1576.02 151.956C1577.61 151.924 1579.12 151.267 1580.23 150.128C1581.33 148.989 1581.94 147.459 1581.93 145.872L1581.5 79.4936C1581.5 77.9121 1580.88 76.3951 1579.76 75.2768C1578.64 74.1585 1577.12 73.5305 1575.54 73.5305ZM1700.59 76.2069C1700.59 75.7481 1700.5 75.2936 1700.33 74.8694C1700.15 74.4453 1699.9 74.0599 1699.57 73.7349C1699.25 73.4099 1698.86 73.1524 1698.44 72.9761C1698.02 72.7998 1697.56 72.7085 1697.1 72.7077L1604.95 72.5467C1604.02 72.5451 1603.13 72.9118 1602.47 73.5658C1601.82 74.2197 1601.45 75.1069 1601.45 76.0334L1601.32 148.797C1601.32 149.256 1601.41 149.71 1601.58 150.134C1601.76 150.559 1602.01 150.944 1602.34 151.269C1602.66 151.594 1603.05 151.851 1603.47 152.028C1603.89 152.204 1604.35 152.295 1604.81 152.296L1696.96 152.457C1697.89 152.459 1698.78 152.092 1699.44 151.438C1700.09 150.784 1700.46 149.897 1700.46 148.97L1700.59 76.2069ZM1818.48 74.3635C1818.48 74.15 1818.44 73.9384 1818.36 73.7408C1818.28 73.5432 1818.16 73.3636 1818.01 73.2121C1817.86 73.0606 1817.68 72.9401 1817.48 72.8577C1817.28 72.7753 1817.07 72.7327 1816.86 72.732L1722.17 72.4018C1721.96 72.4011 1721.75 72.4421 1721.55 72.5231C1721.35 72.6042 1721.17 72.7234 1721.02 72.8739C1720.87 73.0244 1720.75 73.2033 1720.67 73.4003C1720.58 73.5974 1720.54 73.8088 1720.54 74.0224L1720.27 150.64C1720.27 150.853 1720.31 151.065 1720.39 151.262C1720.47 151.46 1720.59 151.64 1720.74 151.792C1720.89 151.943 1721.07 152.063 1721.27 152.145C1721.47 152.228 1721.68 152.271 1721.89 152.272L1816.58 152.602C1816.79 152.603 1817.01 152.562 1817.2 152.481C1817.4 152.4 1817.58 152.28 1817.73 152.13C1817.88 151.979 1818 151.801 1818.09 151.604C1818.17 151.406 1818.21 151.195 1818.21 150.981L1818.48 74.3635ZM1935.02 75.7341C1935.02 75.307 1934.93 74.8843 1934.77 74.49C1934.6 74.0957 1934.36 73.7378 1934.06 73.4364C1933.76 73.1349 1933.4 72.8954 1933 72.7327C1932.61 72.57 1932.18 72.4871 1931.76 72.4878L1841.04 72.6459C1840.18 72.6475 1839.36 72.9915 1838.75 73.6025C1838.14 74.2135 1837.8 75.0414 1837.8 75.904L1837.93 149.993C1837.93 150.42 1838.01 150.842 1838.18 151.237C1838.34 151.631 1838.58 151.989 1838.88 152.29C1839.19 152.592 1839.55 152.831 1839.94 152.994C1840.34 153.157 1840.76 153.24 1841.19 153.239L1931.9 153.081C1932.76 153.079 1933.59 152.735 1934.2 152.124C1934.81 151.513 1935.15 150.685 1935.15 149.823L1935.02 75.7341ZM1935.81 177.269C1935.81 176.771 1935.72 176.277 1935.53 175.816C1935.34 175.354 1935.07 174.935 1934.71 174.58C1934.36 174.226 1933.95 173.944 1933.49 173.751C1933.03 173.558 1932.54 173.457 1932.04 173.455L1841.81 172.983C1841.31 172.98 1840.82 173.076 1840.35 173.264C1839.89 173.452 1839.47 173.729 1839.12 174.08C1838.76 174.43 1838.48 174.847 1838.29 175.307C1838.1 175.766 1838 176.259 1837.99 176.758L1837.61 249.158C1837.61 249.656 1837.71 250.15 1837.89 250.611C1838.08 251.073 1838.36 251.493 1838.71 251.847C1839.06 252.201 1839.48 252.483 1839.94 252.676C1840.4 252.869 1840.89 252.97 1841.39 252.972L1931.62 253.445C1932.12 253.447 1932.61 253.352 1933.07 253.164C1933.53 252.975 1933.95 252.698 1934.31 252.348C1934.66 251.997 1934.94 251.58 1935.14 251.12C1935.33 250.661 1935.43 250.168 1935.43 249.67L1935.81 177.269ZM2053.33 176.306C2053.34 175.895 2053.26 175.487 2053.1 175.106C2052.95 174.725 2052.72 174.379 2052.43 174.086C2052.14 173.794 2051.79 173.561 2051.41 173.402C2051.04 173.242 2050.63 173.16 2050.22 173.158L1958.66 172.677C1958.25 172.675 1957.84 172.754 1957.46 172.91C1957.08 173.065 1956.74 173.295 1956.44 173.584C1956.15 173.873 1955.92 174.217 1955.76 174.597C1955.6 174.976 1955.52 175.382 1955.51 175.794L1955.13 249.881C1955.12 250.292 1955.2 250.7 1955.36 251.081C1955.51 251.461 1955.74 251.808 1956.03 252.1C1956.32 252.393 1956.67 252.625 1957.04 252.784C1957.42 252.944 1957.83 253.027 1958.24 253.029L2049.8 253.509C2050.21 253.511 2050.62 253.432 2051 253.276C2051.38 253.121 2051.72 252.892 2052.02 252.603C2052.31 252.313 2052.54 251.969 2052.7 251.59C2052.86 251.211 2052.94 250.804 2052.95 250.393L2053.33 176.306ZM1700.25 176.221C1700.25 175.881 1700.18 175.544 1700.06 175.23C1699.93 174.915 1699.74 174.628 1699.5 174.387C1699.26 174.146 1698.97 173.954 1698.66 173.823C1698.35 173.692 1698.01 173.623 1697.67 173.622L1604.31 173.297C1603.97 173.295 1603.63 173.361 1603.31 173.49C1603 173.619 1602.71 173.809 1602.47 174.049C1602.23 174.288 1602.04 174.573 1601.91 174.887C1601.78 175.201 1601.71 175.537 1601.71 175.877L1601.06 361.88C1601.06 362.22 1601.12 362.558 1601.25 362.872C1601.38 363.187 1601.57 363.473 1601.81 363.715C1602.05 363.956 1602.33 364.148 1602.65 364.279C1602.96 364.41 1603.3 364.478 1603.64 364.48L1697 364.805C1697.34 364.806 1697.68 364.741 1697.99 364.612C1698.31 364.483 1698.59 364.293 1698.84 364.053C1699.08 363.813 1699.27 363.529 1699.4 363.215C1699.53 362.901 1699.6 362.565 1699.6 362.224L1700.25 176.221ZM1700.41 385.992C1700.41 385.576 1700.25 385.178 1699.96 384.884C1699.66 384.589 1699.26 384.424 1698.85 384.423L1603.32 384.256C1602.9 384.256 1602.5 384.42 1602.21 384.713C1601.92 385.006 1601.75 385.404 1601.75 385.82L1601.62 461.474C1601.62 461.889 1601.78 462.288 1602.07 462.582C1602.37 462.876 1602.77 463.041 1603.18 463.042L1698.71 463.209C1699.13 463.21 1699.53 463.045 1699.82 462.752C1700.11 462.459 1700.28 462.062 1700.28 461.646L1700.41 385.992ZM1818.36 387.04C1818.36 386.7 1818.29 386.363 1818.16 386.048C1818.03 385.734 1817.84 385.448 1817.6 385.206C1817.36 384.965 1817.08 384.773 1816.77 384.642C1816.45 384.51 1816.12 384.442 1815.78 384.441L1723.13 384.117C1722.79 384.116 1722.46 384.182 1722.14 384.312C1721.83 384.441 1721.54 384.63 1721.3 384.87C1721.06 385.109 1720.87 385.395 1720.74 385.709C1720.61 386.022 1720.54 386.359 1720.54 386.699L1720.28 461.268C1720.27 461.609 1720.34 461.946 1720.47 462.26C1720.6 462.575 1720.79 462.861 1721.03 463.102C1721.27 463.344 1721.55 463.536 1721.87 463.667C1722.18 463.798 1722.52 463.866 1722.86 463.868L1815.5 464.191C1815.84 464.192 1816.17 464.126 1816.49 463.997C1816.8 463.868 1817.09 463.679 1817.33 463.439C1817.57 463.199 1817.76 462.914 1817.89 462.6C1818.03 462.286 1818.09 461.95 1818.1 461.61L1818.36 387.04Z"
                  fill="white"/>
        </mask>
        <g mask="url(#mask1_13_62)">
            <path d="M1575.54 73.5305L1367.43 72.2048C1366.48 72.1862 1365.54 71.9487 1364.7 71.5099C1363.85 71.0712 1363.12 70.4435 1362.55 69.6754C1358.82 64.3748 1359.18 59.4753 1363.64 54.9778C1364.19 54.4055 1364.85 53.9508 1365.58 53.6404C1366.3 53.3299 1367.07 53.1705 1367.85 53.1712L1458.39 52.569C1459.17 52.569 1459.94 52.4129 1460.67 52.1102C1461.39 51.8075 1462.05 51.3637 1462.6 50.8044C1463.16 50.245 1463.6 49.5815 1463.9 48.8507C1464.19 48.1199 1464.35 47.3366 1464.35 46.5456V-35.8553C1464.35 -36.8074 1464.58 -37.7469 1465.02 -38.5957C1465.46 -39.4444 1466.1 -40.1782 1466.88 -40.7346C1480.55 -50.5528 1483.8 -36.036 1483.8 -26.0974C1483.84 -2.24457 1483.95 21.6284 1484.11 45.5214C1484.12 47.1084 1484.76 48.6253 1485.89 49.7419C1487.02 50.8585 1488.54 51.4846 1490.13 51.4845H1575.66C1577.26 51.4845 1578.79 50.8565 1579.92 49.7382C1581.05 48.6199 1581.69 47.1029 1581.69 45.5214L1582.11 -36.6384C1582.11 -37.8032 1582.45 -38.9411 1583.08 -39.914C1583.71 -40.887 1584.61 -41.6532 1585.66 -42.1199C1594.88 -46.1556 1600.84 -41.156 1601.32 -31.4583C1602.57 -5.83864 1603.19 19.7811 1603.19 45.4008C1603.19 46.9983 1603.82 48.5307 1604.95 49.6603C1606.08 50.7899 1607.62 51.4242 1609.21 51.4242L1947.25 51.6051C1948.82 51.6048 1950.34 52.2227 1951.47 53.3264C1952.59 54.4301 1953.24 55.9314 1953.27 57.5079L1955.26 146.474C1955.29 148.051 1955.94 149.552 1957.07 150.656C1958.19 151.759 1959.71 152.377 1961.28 152.377H2046.94C2048.53 152.377 2050.07 151.749 2051.19 150.631C2052.32 149.512 2052.96 147.995 2052.96 146.414C2053.16 121.075 2053.24 95.8367 2053.2 70.6989C2053.14 60.8205 2057.06 47.5089 2069.76 56.6043C2070.53 57.1686 2071.16 57.9022 2071.6 58.7484C2072.04 59.5945 2072.28 60.5307 2072.29 61.4836L2073.8 246.945C2073.82 248.537 2074.46 250.06 2075.58 251.186C2076.71 252.313 2078.23 252.952 2079.82 252.968L2164.51 253.33C2165.31 253.338 2166.1 253.188 2166.84 252.889C2167.57 252.59 2168.25 252.147 2168.81 251.587C2169.38 251.027 2169.83 250.36 2170.13 249.625C2170.44 248.891 2170.6 248.103 2170.6 247.306V62.2064C2170.6 61.2542 2170.83 60.3148 2171.27 59.466C2171.71 58.6172 2172.34 57.8835 2173.13 57.3271C2186.38 47.6896 2190.29 61.1223 2190.23 71.3621C2189.99 129.95 2190.07 188.538 2190.47 247.126C2190.49 248.718 2191.12 250.241 2192.24 251.367C2193.35 252.494 2194.86 253.133 2196.44 253.149L2242.34 253.691C2243.16 253.696 2243.97 253.872 2244.72 254.208C2245.47 254.543 2246.14 255.032 2246.69 255.642C2247.25 256.253 2247.67 256.973 2247.94 257.756C2248.2 258.54 2248.31 259.371 2248.24 260.197L2247.64 267.364C2247.5 268.866 2246.81 270.262 2245.69 271.277C2244.58 272.292 2243.12 272.852 2241.61 272.846H2079.28C2077.68 272.846 2076.15 273.486 2075.02 274.627C2073.89 275.768 2073.26 277.316 2073.26 278.929L2073.74 350.608C2073.74 352.175 2074.35 353.68 2075.44 354.805C2076.53 355.929 2078.02 356.585 2079.58 356.632C2108.46 357.475 2137.53 357.575 2166.8 356.933C2177.7 356.692 2191.92 359.583 2181.56 374.22C2181 375.002 2180.27 375.64 2179.42 376.08C2178.57 376.52 2177.63 376.75 2176.68 376.75H2079.58C2078.02 376.75 2076.51 377.366 2075.39 378.468C2074.26 379.57 2073.61 381.071 2073.56 382.653L2072.29 439.153C2072.27 440.182 2071.99 441.189 2071.47 442.075C2070.96 442.961 2070.22 443.696 2069.34 444.212C2059.79 449.834 2054.91 447.304 2054.71 436.622C2053.7 384.018 2053.14 331.434 2053.02 278.869C2053.02 277.272 2052.38 275.739 2051.26 274.61C2050.13 273.48 2048.59 272.846 2047 272.846H1961.46C1959.88 272.846 1958.35 273.472 1957.23 274.588C1956.1 275.705 1955.46 277.222 1955.44 278.809L1954.72 343.802C1954.72 345.116 1954.28 346.395 1953.48 347.44C1952.67 348.486 1951.54 349.239 1950.26 349.584C1937.13 352.957 1932.35 346.914 1935.92 331.454C1937.25 325.671 1936.79 307.983 1934.54 278.388C1934.42 276.875 1933.73 275.464 1932.61 274.436C1931.5 273.409 1930.03 272.841 1928.52 272.846H1824.25C1822.65 272.846 1821.12 272.211 1819.99 271.082C1818.86 269.952 1818.23 268.42 1818.23 266.822V179.663C1818.23 178.097 1817.61 176.591 1816.51 175.466C1815.41 174.342 1813.9 173.687 1812.32 173.64L1726.49 171.772C1725.69 171.756 1724.89 171.9 1724.15 172.196C1723.4 172.491 1722.72 172.933 1722.15 173.494C1721.58 174.055 1721.12 174.724 1720.81 175.463C1720.5 176.201 1720.34 176.994 1720.34 177.796V358.68C1720.34 360.277 1720.98 361.81 1722.11 362.939C1723.24 364.069 1724.77 364.703 1726.37 364.703H1831.72C1833.32 364.703 1834.85 365.337 1835.98 366.467C1837.11 367.597 1837.74 369.129 1837.74 370.727L1837.8 458.127C1837.8 458.923 1837.96 459.711 1838.27 460.446C1838.57 461.18 1839.02 461.847 1839.59 462.407C1840.15 462.968 1840.82 463.41 1841.56 463.709C1842.3 464.008 1843.09 464.158 1843.89 464.15L1945.44 463.307C1947.04 463.291 1948.58 463.917 1949.72 465.046C1950.86 466.176 1951.51 467.717 1951.52 469.33V476.257C1951.52 477.85 1950.9 479.379 1949.79 480.517C1948.67 481.654 1947.15 482.309 1945.56 482.341L1843.77 483.545C1842.18 483.561 1840.66 484.203 1839.55 485.331C1838.43 486.458 1837.8 487.982 1837.8 489.569V647.202C1837.8 648.819 1837.15 650.379 1836 651.539C1825.7 661.598 1818.11 653.045 1818.11 641.721C1818.35 590.843 1818.33 540.005 1818.05 489.208C1818.05 487.621 1817.42 486.097 1816.3 484.97C1815.19 483.842 1813.67 483.2 1812.08 483.184L1726.25 482.461C1725.45 482.454 1724.66 482.604 1723.92 482.903C1723.19 483.202 1722.52 483.644 1721.95 484.204C1721.38 484.764 1720.93 485.431 1720.63 486.166C1720.32 486.901 1720.16 487.689 1720.16 488.485L1720.47 568.415C1720.47 569.851 1719.95 571.24 1719.02 572.331C1706.55 587.088 1698.9 573.475 1699.14 561.308C1699.62 537.335 1699.48 513.401 1698.72 489.508C1698.67 487.942 1698.02 486.457 1696.89 485.366C1695.77 484.275 1694.26 483.665 1692.7 483.666H1587.83C1586.23 483.666 1584.7 483.032 1583.57 481.902C1582.44 480.772 1581.81 479.24 1581.81 477.642V390.303C1581.81 388.705 1581.17 387.173 1580.04 386.043C1578.91 384.914 1577.38 384.279 1575.78 384.279H1483.08C1481.99 384.277 1480.91 383.978 1479.98 383.415C1479.05 382.853 1478.29 382.048 1477.78 381.087C1472 370.184 1480.19 364.763 1490.37 364.763C1518.88 364.804 1547.37 364.703 1575.84 364.462C1577.42 364.462 1578.94 363.828 1580.06 362.698C1581.18 361.568 1581.81 360.036 1581.81 358.438V180.145C1581.81 178.578 1581.2 177.073 1580.11 175.949C1579.02 174.824 1577.53 174.169 1575.96 174.122C1544.6 173.198 1513.64 173.038 1483.08 173.64C1471.76 173.881 1462.24 167.014 1472.06 155.991C1472.61 155.363 1473.29 154.857 1474.04 154.505C1474.8 154.152 1475.62 153.961 1476.46 153.943L1576.02 151.956C1577.61 151.924 1579.12 151.267 1580.23 150.128C1581.33 148.989 1581.94 147.459 1581.93 145.872L1581.5 79.4936C1581.5 77.9121 1580.88 76.3951 1579.76 75.2768C1578.64 74.1585 1577.12 73.5305 1575.54 73.5305ZM1700.59 76.2069C1700.59 75.7481 1700.5 75.2936 1700.33 74.8694C1700.15 74.4453 1699.9 74.0599 1699.57 73.7349C1699.25 73.4099 1698.86 73.1524 1698.44 72.9761C1698.02 72.7998 1697.56 72.7085 1697.1 72.7077L1604.95 72.5467C1604.02 72.5451 1603.13 72.9118 1602.47 73.5658C1601.82 74.2197 1601.45 75.1069 1601.45 76.0334L1601.32 148.797C1601.32 149.256 1601.41 149.71 1601.58 150.134C1601.76 150.559 1602.01 150.944 1602.34 151.269C1602.66 151.594 1603.05 151.851 1603.47 152.028C1603.89 152.204 1604.35 152.295 1604.81 152.296L1696.96 152.457C1697.89 152.459 1698.78 152.092 1699.44 151.438C1700.09 150.784 1700.46 149.897 1700.46 148.97L1700.59 76.2069ZM1818.48 74.3635C1818.48 74.15 1818.44 73.9384 1818.36 73.7408C1818.28 73.5432 1818.16 73.3636 1818.01 73.2121C1817.86 73.0606 1817.68 72.9401 1817.48 72.8577C1817.28 72.7753 1817.07 72.7327 1816.86 72.732L1722.17 72.4018C1721.96 72.4011 1721.75 72.4421 1721.55 72.5231C1721.35 72.6042 1721.17 72.7234 1721.02 72.8739C1720.87 73.0244 1720.75 73.2033 1720.67 73.4003C1720.58 73.5974 1720.54 73.8088 1720.54 74.0224L1720.27 150.64C1720.27 150.853 1720.31 151.065 1720.39 151.262C1720.47 151.46 1720.59 151.64 1720.74 151.792C1720.89 151.943 1721.07 152.063 1721.27 152.145C1721.47 152.228 1721.68 152.271 1721.89 152.272L1816.58 152.602C1816.79 152.603 1817.01 152.562 1817.2 152.481C1817.4 152.4 1817.58 152.28 1817.73 152.13C1817.88 151.979 1818 151.801 1818.09 151.604C1818.17 151.406 1818.21 151.195 1818.21 150.981L1818.48 74.3635ZM1935.02 75.7341C1935.02 75.307 1934.93 74.8843 1934.77 74.49C1934.6 74.0957 1934.36 73.7378 1934.06 73.4364C1933.76 73.1349 1933.4 72.8954 1933 72.7327C1932.61 72.57 1932.18 72.4871 1931.76 72.4878L1841.04 72.6459C1840.18 72.6475 1839.36 72.9915 1838.75 73.6025C1838.14 74.2135 1837.8 75.0414 1837.8 75.904L1837.93 149.993C1837.93 150.42 1838.01 150.842 1838.18 151.237C1838.34 151.631 1838.58 151.989 1838.88 152.29C1839.19 152.592 1839.55 152.831 1839.94 152.994C1840.34 153.157 1840.76 153.24 1841.19 153.239L1931.9 153.081C1932.76 153.079 1933.59 152.735 1934.2 152.124C1934.81 151.513 1935.15 150.685 1935.15 149.823L1935.02 75.7341ZM1935.81 177.269C1935.81 176.771 1935.72 176.277 1935.53 175.816C1935.34 175.354 1935.07 174.935 1934.71 174.58C1934.36 174.226 1933.95 173.944 1933.49 173.751C1933.03 173.558 1932.54 173.457 1932.04 173.455L1841.81 172.983C1841.31 172.98 1840.82 173.076 1840.35 173.264C1839.89 173.452 1839.47 173.729 1839.12 174.08C1838.76 174.43 1838.48 174.847 1838.29 175.307C1838.1 175.766 1838 176.259 1837.99 176.758L1837.61 249.158C1837.61 249.656 1837.71 250.15 1837.89 250.611C1838.08 251.073 1838.36 251.493 1838.71 251.847C1839.06 252.201 1839.48 252.483 1839.94 252.676C1840.4 252.869 1840.89 252.97 1841.39 252.972L1931.62 253.445C1932.12 253.447 1932.61 253.352 1933.07 253.164C1933.53 252.975 1933.95 252.698 1934.31 252.348C1934.66 251.997 1934.94 251.58 1935.14 251.12C1935.33 250.661 1935.43 250.168 1935.43 249.67L1935.81 177.269ZM2053.33 176.306C2053.34 175.895 2053.26 175.487 2053.1 175.106C2052.95 174.725 2052.72 174.379 2052.43 174.086C2052.14 173.794 2051.79 173.561 2051.41 173.402C2051.04 173.242 2050.63 173.16 2050.22 173.158L1958.66 172.677C1958.25 172.675 1957.84 172.754 1957.46 172.91C1957.08 173.065 1956.74 173.295 1956.44 173.584C1956.15 173.873 1955.92 174.217 1955.76 174.597C1955.6 174.976 1955.52 175.382 1955.51 175.794L1955.13 249.881C1955.12 250.292 1955.2 250.7 1955.36 251.081C1955.51 251.461 1955.74 251.808 1956.03 252.1C1956.32 252.393 1956.67 252.625 1957.04 252.784C1957.42 252.944 1957.83 253.027 1958.24 253.029L2049.8 253.509C2050.21 253.511 2050.62 253.432 2051 253.276C2051.38 253.121 2051.72 252.892 2052.02 252.603C2052.31 252.313 2052.54 251.969 2052.7 251.59C2052.86 251.211 2052.94 250.804 2052.95 250.393L2053.33 176.306ZM1700.25 176.221C1700.25 175.881 1700.18 175.544 1700.06 175.23C1699.93 174.915 1699.74 174.628 1699.5 174.387C1699.26 174.146 1698.97 173.954 1698.66 173.823C1698.35 173.692 1698.01 173.623 1697.67 173.622L1604.31 173.297C1603.97 173.295 1603.63 173.361 1603.31 173.49C1603 173.619 1602.71 173.809 1602.47 174.049C1602.23 174.288 1602.04 174.573 1601.91 174.887C1601.78 175.201 1601.71 175.537 1601.71 175.877L1601.06 361.88C1601.06 362.22 1601.12 362.558 1601.25 362.872C1601.38 363.187 1601.57 363.473 1601.81 363.715C1602.05 363.956 1602.33 364.148 1602.65 364.279C1602.96 364.41 1603.3 364.478 1603.64 364.48L1697 364.805C1697.34 364.806 1697.68 364.741 1697.99 364.612C1698.31 364.483 1698.59 364.293 1698.84 364.053C1699.08 363.813 1699.27 363.529 1699.4 363.215C1699.53 362.901 1699.6 362.565 1699.6 362.224L1700.25 176.221ZM1700.41 385.992C1700.41 385.576 1700.25 385.178 1699.96 384.884C1699.66 384.589 1699.26 384.424 1698.85 384.423L1603.32 384.256C1602.9 384.256 1602.5 384.42 1602.21 384.713C1601.92 385.006 1601.75 385.404 1601.75 385.82L1601.62 461.474C1601.62 461.889 1601.78 462.288 1602.07 462.582C1602.37 462.876 1602.77 463.041 1603.18 463.042L1698.71 463.209C1699.13 463.21 1699.53 463.045 1699.82 462.752C1700.11 462.459 1700.28 462.062 1700.28 461.646L1700.41 385.992ZM1818.36 387.04C1818.36 386.7 1818.29 386.363 1818.16 386.048C1818.03 385.734 1817.84 385.448 1817.6 385.206C1817.36 384.965 1817.08 384.773 1816.77 384.642C1816.45 384.51 1816.12 384.442 1815.78 384.441L1723.13 384.117C1722.79 384.116 1722.46 384.182 1722.14 384.312C1721.83 384.441 1721.54 384.63 1721.3 384.87C1721.06 385.109 1720.87 385.395 1720.74 385.709C1720.61 386.022 1720.54 386.359 1720.54 386.699L1720.28 461.268C1720.27 461.609 1720.34 461.946 1720.47 462.26C1720.6 462.575 1720.79 462.861 1721.03 463.102C1721.27 463.344 1721.55 463.536 1721.87 463.667C1722.18 463.798 1722.52 463.866 1722.86 463.868L1815.5 464.191C1815.84 464.192 1816.17 464.126 1816.49 463.997C1816.8 463.868 1817.09 463.679 1817.33 463.439C1817.57 463.199 1817.76 462.914 1817.89 462.6C1818.03 462.286 1818.09 461.95 1818.1 461.61L1818.36 387.04Z"
                  stroke="#7B74FF" stroke-opacity="0.1" stroke-width="3.5"/>
        </g>
        <mask id="mask2_13_62" style="mask-type:luminance" maskUnits="userSpaceOnUse" x="-163" y="-44" width="889"
              height="700">
            <path d="M52.5423 73.5305L-155.567 72.2048C-156.52 72.1862 -157.456 71.9487 -158.302 71.5099C-159.148 71.0712 -159.882 70.4435 -160.446 69.6754C-164.181 64.3748 -163.819 59.4753 -159.362 54.9778C-158.807 54.4055 -158.149 53.9508 -157.424 53.6404C-156.7 53.3299 -155.925 53.1705 -155.146 53.1712L-64.6134 52.569C-63.8303 52.569 -63.055 52.4129 -62.3315 52.1102C-61.608 51.8075 -60.9507 51.3637 -60.397 50.8044C-59.8432 50.245 -59.404 49.5815 -59.1043 48.8507C-58.8047 48.1199 -58.6503 47.3366 -58.6503 46.5456V-35.8553C-58.6503 -36.8074 -58.4206 -37.7469 -57.9805 -38.5957C-57.5404 -39.4444 -56.9028 -40.1782 -56.1206 -40.7346C-42.4474 -50.5528 -39.1948 -36.036 -39.1948 -26.0974C-39.1546 -2.24457 -39.0539 21.6284 -38.8933 45.5214C-38.8774 47.1084 -38.2359 48.6253 -37.108 49.7419C-35.9801 50.8585 -34.457 51.4846 -32.8699 51.4845H52.6625C54.26 51.4845 55.7924 50.8565 56.922 49.7382C58.0516 48.6199 58.6859 47.1029 58.6859 45.5214L59.1076 -36.6384C59.1098 -37.8032 59.4467 -38.9411 60.0775 -39.914C60.7083 -40.887 61.606 -41.6532 62.6616 -42.1199C71.8775 -46.1556 77.8405 -41.156 78.3224 -31.4583C79.5672 -5.83864 80.1896 19.7811 80.1896 45.4008C80.1896 46.9983 80.8243 48.5307 81.9539 49.6603C83.0836 50.7899 84.6155 51.4242 86.2131 51.4242L424.248 51.6051C425.825 51.6048 427.339 52.2227 428.465 53.3264C429.591 54.4301 430.24 55.9314 430.271 57.5079L432.259 146.474C432.291 148.051 432.939 149.552 434.065 150.656C435.192 151.759 436.706 152.377 438.283 152.377H523.935C525.533 152.377 527.065 151.749 528.195 150.631C529.325 149.512 529.959 147.995 529.959 146.414C530.16 121.075 530.24 95.8367 530.2 70.6989C530.14 60.8205 534.055 47.5089 546.765 56.6043C547.533 57.1686 548.16 57.9022 548.599 58.7484C549.038 59.5945 549.276 60.5307 549.294 61.4836L550.8 246.945C550.816 248.537 551.455 250.06 552.582 251.186C553.708 252.313 555.231 252.952 556.824 252.968L641.513 253.33C642.309 253.338 643.099 253.188 643.836 252.889C644.574 252.59 645.245 252.147 645.811 251.587C646.377 251.027 646.826 250.36 647.132 249.625C647.439 248.891 647.597 248.103 647.597 247.306V62.2064C647.597 61.2542 647.826 60.3148 648.266 59.466C648.707 58.6172 649.344 57.8835 650.126 57.3271C663.378 47.6896 667.293 61.1223 667.233 71.3621C666.992 129.95 667.072 188.538 667.474 247.126C667.489 248.718 668.123 250.241 669.238 251.367C670.353 252.494 671.86 253.133 673.437 253.149L719.336 253.691C720.156 253.696 720.966 253.872 721.716 254.208C722.466 254.543 723.139 255.032 723.693 255.642C724.247 256.253 724.67 256.973 724.936 257.756C725.202 258.54 725.305 259.371 725.239 260.197L724.636 267.364C724.5 268.866 723.807 270.262 722.691 271.277C721.576 272.292 720.121 272.852 718.613 272.846H556.282C554.684 272.846 553.152 273.486 552.022 274.627C550.893 275.768 550.258 277.316 550.258 278.929L550.74 350.608C550.739 352.175 551.349 353.68 552.44 354.805C553.531 355.929 555.017 356.585 556.583 356.632C585.455 357.475 614.528 357.575 643.802 356.933C654.704 356.692 668.92 359.583 658.559 374.22C658.003 375.002 657.27 375.64 656.421 376.08C655.572 376.52 654.633 376.75 653.68 376.75H556.583C555.016 376.75 553.511 377.366 552.386 378.468C551.262 379.57 550.606 381.071 550.559 382.653L549.294 439.153C549.274 440.182 548.992 441.189 548.475 442.075C547.958 442.961 547.224 443.696 546.343 444.212C536.786 449.834 531.907 447.304 531.706 436.622C530.702 384.018 530.14 331.434 530.019 278.869C530.019 277.272 529.385 275.739 528.255 274.61C527.126 273.48 525.593 272.846 523.996 272.846H438.463C436.876 272.846 435.353 273.472 434.225 274.588C433.097 275.705 432.456 277.222 432.44 278.809L431.717 343.802C431.719 345.116 431.284 346.395 430.478 347.44C429.672 348.486 428.541 349.239 427.26 349.584C414.128 352.957 409.35 346.914 412.924 331.454C414.249 325.671 413.787 307.983 411.539 278.388C411.417 276.875 410.729 275.464 409.612 274.436C408.496 273.409 407.032 272.841 405.515 272.846H301.25C299.652 272.846 298.12 272.211 296.99 271.082C295.861 269.952 295.226 268.42 295.226 266.822V179.663C295.226 178.097 294.61 176.591 293.508 175.466C292.406 174.342 290.905 173.687 289.323 173.64L203.489 171.772C202.688 171.756 201.892 171.9 201.147 172.196C200.402 172.491 199.724 172.933 199.152 173.494C198.58 174.055 198.125 174.724 197.815 175.463C197.505 176.201 197.345 176.994 197.345 177.796V358.68C197.345 360.277 197.98 361.81 199.11 362.939C200.239 364.069 201.771 364.703 203.369 364.703H308.719C310.316 364.703 311.848 365.337 312.978 366.467C314.107 367.597 314.742 369.129 314.742 370.727L314.802 458.127C314.802 458.923 314.96 459.711 315.267 460.446C315.573 461.18 316.022 461.847 316.588 462.407C317.154 462.968 317.825 463.41 318.562 463.709C319.3 464.008 320.09 464.158 320.886 464.15L422.441 463.307C424.038 463.291 425.577 463.917 426.718 465.046C427.859 466.176 428.509 467.717 428.525 469.33V476.257C428.525 477.85 427.901 479.379 426.786 480.517C425.671 481.654 424.154 482.309 422.561 482.341L320.765 483.545C319.178 483.561 317.662 484.203 316.545 485.331C315.429 486.458 314.802 487.982 314.802 489.569V647.202C314.803 648.819 314.153 650.379 312.995 651.539C302.695 661.598 295.106 653.045 295.106 641.721C295.346 590.843 295.326 540.005 295.045 489.208C295.045 487.621 294.419 486.097 293.303 484.97C292.186 483.842 290.669 483.2 289.082 483.184L203.248 482.461C202.452 482.454 201.663 482.604 200.925 482.903C200.187 483.202 199.516 483.644 198.95 484.204C198.384 484.764 197.935 485.431 197.629 486.166C197.322 486.901 197.164 487.689 197.164 488.485L197.466 568.415C197.466 569.851 196.953 571.24 196.02 572.331C183.552 587.088 175.902 573.475 176.143 561.308C176.625 537.335 176.484 513.401 175.721 489.508C175.674 487.942 175.019 486.457 173.894 485.366C172.77 484.275 171.264 483.665 169.698 483.666H64.83C63.2325 483.666 61.7005 483.032 60.5708 481.902C59.4412 480.772 58.8065 479.24 58.8065 477.642V390.303C58.8065 388.705 58.1718 387.173 57.0422 386.043C55.9126 384.914 54.3806 384.279 52.7831 384.279H-39.9175C-41.0127 384.277 -42.0849 383.978 -43.019 383.415C-43.953 382.853 -44.7135 382.048 -45.2182 381.087C-51.0007 370.184 -42.8086 364.763 -32.6291 364.763C-4.11816 364.804 24.3727 364.703 52.8434 364.462C54.4249 364.462 55.9416 363.828 57.0599 362.698C58.1782 361.568 58.8065 360.036 58.8065 358.438V180.145C58.8072 178.578 58.1974 177.073 57.1066 175.949C56.0157 174.824 54.53 174.169 52.964 174.122C21.602 173.198 -9.35868 173.038 -39.9175 173.64C-51.2416 173.881 -60.7583 167.014 -50.9401 155.991C-50.3892 155.363 -49.7141 154.857 -48.9571 154.505C-48.2001 154.152 -47.378 153.961 -46.5432 153.943L53.0239 151.956C54.6109 151.924 56.1214 151.267 57.2268 150.128C58.3322 148.989 58.9433 147.459 58.9271 145.872L58.5054 79.4936C58.5054 77.9121 57.8771 76.3951 56.7588 75.2768C55.6405 74.1585 54.1238 73.5305 52.5423 73.5305ZM177.592 76.2069C177.592 75.7481 177.503 75.2936 177.328 74.8694C177.153 74.4453 176.896 74.0599 176.573 73.7349C176.249 73.4099 175.864 73.1524 175.441 72.9761C175.017 72.7998 174.563 72.7085 174.104 72.7077L81.9462 72.5467C81.0198 72.5451 80.1305 72.9118 79.4742 73.5658C78.8179 74.2197 78.4484 75.1069 78.4466 76.0334L78.3194 148.797C78.3186 149.256 78.4082 149.71 78.583 150.134C78.7579 150.559 79.0147 150.944 79.3385 151.269C79.6624 151.594 80.047 151.851 80.4705 152.028C80.8941 152.204 81.3481 152.295 81.8069 152.296L173.965 152.457C174.891 152.459 175.781 152.092 176.437 151.438C177.093 150.784 177.463 149.897 177.464 148.97L177.592 76.2069ZM295.48 74.3635C295.481 74.15 295.44 73.9384 295.358 73.7408C295.277 73.5432 295.158 73.3636 295.008 73.2121C294.857 73.0606 294.678 72.9401 294.481 72.8577C294.284 72.7753 294.073 72.7327 293.859 72.732L199.172 72.4018C198.958 72.4011 198.747 72.4421 198.549 72.5231C198.351 72.6042 198.172 72.7234 198.02 72.8739C197.868 73.0244 197.748 73.2033 197.666 73.4003C197.584 73.5974 197.541 73.8088 197.54 74.0224L197.272 150.64C197.271 150.853 197.312 151.065 197.394 151.262C197.475 151.46 197.594 151.64 197.744 151.792C197.895 151.943 198.074 152.063 198.271 152.145C198.468 152.228 198.679 152.271 198.893 152.272L293.581 152.602C293.794 152.603 294.006 152.562 294.203 152.481C294.401 152.4 294.58 152.28 294.732 152.13C294.884 151.979 295.004 151.801 295.086 151.604C295.169 151.406 295.211 151.195 295.212 150.981L295.48 74.3635ZM412.016 75.7341C412.015 75.307 411.931 74.8843 411.766 74.49C411.602 74.0957 411.362 73.7378 411.059 73.4364C410.756 73.1349 410.398 72.8954 410.003 72.7327C409.608 72.57 409.185 72.4871 408.758 72.4878L318.045 72.6459C317.182 72.6475 316.356 72.9915 315.747 73.6025C315.138 74.2135 314.797 75.0414 314.798 75.904L314.927 149.993C314.928 150.42 315.013 150.842 315.177 151.237C315.341 151.631 315.581 151.989 315.884 152.29C316.186 152.592 316.546 152.831 316.94 152.994C317.335 153.157 317.759 153.24 318.186 153.239L408.898 153.081C409.761 153.079 410.588 152.735 411.197 152.124C411.805 151.513 412.147 150.685 412.145 149.823L412.016 75.7341ZM412.812 177.269C412.815 176.771 412.719 176.277 412.531 175.816C412.342 175.354 412.065 174.935 411.715 174.58C411.364 174.226 410.947 173.944 410.488 173.751C410.028 173.558 409.535 173.457 409.037 173.455L318.807 172.983C318.309 172.98 317.815 173.076 317.354 173.264C316.892 173.452 316.472 173.729 316.118 174.08C315.764 174.43 315.482 174.847 315.289 175.307C315.096 175.766 314.995 176.259 314.993 176.758L314.613 249.158C314.611 249.656 314.706 250.15 314.895 250.611C315.083 251.073 315.36 251.493 315.71 251.847C316.061 252.201 316.478 252.483 316.937 252.676C317.397 252.869 317.89 252.97 318.388 252.972L408.618 253.445C409.116 253.447 409.61 253.352 410.072 253.164C410.533 252.975 410.953 252.698 411.307 252.348C411.661 251.997 411.943 251.58 412.136 251.12C412.329 250.661 412.43 250.168 412.432 249.67L412.812 177.269ZM530.333 176.306C530.335 175.895 530.256 175.487 530.101 175.106C529.945 174.725 529.717 174.379 529.427 174.086C529.138 173.794 528.794 173.561 528.414 173.402C528.035 173.242 527.628 173.16 527.217 173.158L435.662 172.677C435.251 172.675 434.843 172.754 434.462 172.91C434.082 173.065 433.735 173.295 433.443 173.584C433.151 173.873 432.918 174.217 432.758 174.597C432.599 174.976 432.516 175.382 432.514 175.794L432.126 249.881C432.124 250.292 432.203 250.7 432.358 251.081C432.513 251.461 432.743 251.808 433.032 252.1C433.321 252.393 433.665 252.625 434.044 252.784C434.424 252.944 434.83 253.027 435.242 253.029L526.797 253.509C527.208 253.511 527.616 253.432 527.997 253.276C528.378 253.121 528.724 252.892 529.016 252.603C529.309 252.313 529.541 251.969 529.7 251.59C529.86 251.211 529.943 250.804 529.945 250.393L530.333 176.306ZM177.25 176.221C177.251 175.881 177.185 175.544 177.056 175.23C176.927 174.915 176.738 174.628 176.498 174.387C176.258 174.146 175.973 173.954 175.659 173.823C175.346 173.692 175.009 173.623 174.669 173.622L81.3065 173.297C80.9664 173.295 80.6293 173.361 80.3146 173.49C79.9999 173.619 79.7137 173.809 79.4724 174.049C79.231 174.288 79.0393 174.573 78.908 174.887C78.7768 175.201 78.7085 175.537 78.7073 175.877L78.0588 361.88C78.0576 362.22 78.1231 362.558 78.2522 362.872C78.3812 363.187 78.5713 363.473 78.811 363.715C79.0506 363.956 79.3354 364.148 79.6492 364.279C79.963 364.41 80.2995 364.478 80.6396 364.48L174.002 364.805C174.342 364.806 174.679 364.741 174.994 364.612C175.309 364.483 175.595 364.293 175.836 364.053C176.078 363.813 176.269 363.529 176.401 363.215C176.532 362.901 176.6 362.565 176.601 362.224L177.25 176.221ZM177.413 385.992C177.414 385.576 177.25 385.178 176.956 384.884C176.663 384.589 176.265 384.424 175.85 384.423L80.3187 384.256C79.9034 384.256 79.5047 384.42 79.2106 384.713C78.9165 385.006 78.7507 385.404 78.75 385.82L78.6183 461.474C78.6177 461.889 78.7818 462.288 79.075 462.582C79.3681 462.876 79.7659 463.041 80.1812 463.042L175.713 463.209C176.128 463.21 176.527 463.045 176.821 462.752C177.115 462.459 177.281 462.062 177.281 461.646L177.413 385.992ZM295.356 387.04C295.357 386.7 295.292 386.363 295.163 386.048C295.033 385.734 294.844 385.448 294.604 385.206C294.364 384.965 294.08 384.773 293.766 384.642C293.452 384.51 293.115 384.442 292.775 384.441L200.135 384.117C199.795 384.116 199.458 384.182 199.144 384.312C198.829 384.441 198.543 384.63 198.301 384.87C198.06 385.109 197.868 385.395 197.737 385.709C197.606 386.022 197.537 386.359 197.536 386.699L197.276 461.268C197.274 461.609 197.34 461.946 197.469 462.26C197.598 462.575 197.788 462.861 198.028 463.102C198.267 463.344 198.552 463.536 198.866 463.667C199.18 463.798 199.516 463.866 199.856 463.868L292.496 464.191C292.837 464.192 293.174 464.126 293.488 463.997C293.803 463.868 294.089 463.679 294.331 463.439C294.572 463.199 294.764 462.914 294.895 462.6C295.026 462.286 295.094 461.95 295.095 461.61L295.356 387.04Z"
                  fill="white"/>
        </mask>
        <g mask="url(#mask2_13_62)">
            <path d="M52.5423 73.5305L-155.567 72.2048C-156.52 72.1862 -157.456 71.9487 -158.302 71.5099C-159.148 71.0712 -159.882 70.4435 -160.446 69.6754C-164.181 64.3748 -163.819 59.4753 -159.362 54.9778C-158.807 54.4055 -158.149 53.9508 -157.424 53.6404C-156.7 53.3299 -155.925 53.1705 -155.146 53.1712L-64.6134 52.569C-63.8303 52.569 -63.055 52.4129 -62.3315 52.1102C-61.608 51.8075 -60.9507 51.3637 -60.397 50.8044C-59.8432 50.245 -59.404 49.5815 -59.1043 48.8507C-58.8047 48.1199 -58.6503 47.3366 -58.6503 46.5456V-35.8553C-58.6503 -36.8074 -58.4206 -37.7469 -57.9805 -38.5957C-57.5404 -39.4444 -56.9028 -40.1782 -56.1206 -40.7346C-42.4474 -50.5528 -39.1948 -36.036 -39.1948 -26.0974C-39.1546 -2.24457 -39.0539 21.6284 -38.8933 45.5214C-38.8774 47.1084 -38.2359 48.6253 -37.108 49.7419C-35.9801 50.8585 -34.457 51.4846 -32.8699 51.4845H52.6625C54.26 51.4845 55.7924 50.8565 56.922 49.7382C58.0516 48.6199 58.6859 47.1029 58.6859 45.5214L59.1076 -36.6384C59.1098 -37.8032 59.4467 -38.9411 60.0775 -39.914C60.7083 -40.887 61.606 -41.6532 62.6616 -42.1199C71.8775 -46.1556 77.8405 -41.156 78.3224 -31.4583C79.5672 -5.83864 80.1896 19.7811 80.1896 45.4008C80.1896 46.9983 80.8243 48.5307 81.9539 49.6603C83.0836 50.7899 84.6155 51.4242 86.2131 51.4242L424.248 51.6051C425.825 51.6048 427.339 52.2227 428.465 53.3264C429.591 54.4301 430.24 55.9314 430.271 57.5079L432.259 146.474C432.291 148.051 432.939 149.552 434.065 150.656C435.192 151.759 436.706 152.377 438.283 152.377H523.935C525.533 152.377 527.065 151.749 528.195 150.631C529.325 149.512 529.959 147.995 529.959 146.414C530.16 121.075 530.24 95.8367 530.2 70.6989C530.14 60.8205 534.055 47.5089 546.765 56.6043C547.533 57.1686 548.16 57.9022 548.599 58.7484C549.038 59.5945 549.276 60.5307 549.294 61.4836L550.8 246.945C550.816 248.537 551.455 250.06 552.582 251.186C553.708 252.313 555.231 252.952 556.824 252.968L641.513 253.33C642.309 253.338 643.099 253.188 643.836 252.889C644.574 252.59 645.245 252.147 645.811 251.587C646.377 251.027 646.826 250.36 647.132 249.625C647.439 248.891 647.597 248.103 647.597 247.306V62.2064C647.597 61.2542 647.826 60.3148 648.266 59.466C648.707 58.6172 649.344 57.8835 650.126 57.3271C663.378 47.6896 667.293 61.1223 667.233 71.3621C666.992 129.95 667.072 188.538 667.474 247.126C667.489 248.718 668.123 250.241 669.238 251.367C670.353 252.494 671.86 253.133 673.437 253.149L719.336 253.691C720.156 253.696 720.966 253.872 721.716 254.208C722.466 254.543 723.139 255.032 723.693 255.642C724.247 256.253 724.67 256.973 724.936 257.756C725.202 258.54 725.305 259.371 725.239 260.197L724.636 267.364C724.5 268.866 723.807 270.262 722.691 271.277C721.576 272.292 720.121 272.852 718.613 272.846H556.282C554.684 272.846 553.152 273.486 552.022 274.627C550.893 275.768 550.258 277.316 550.258 278.929L550.74 350.608C550.739 352.175 551.349 353.68 552.44 354.805C553.531 355.929 555.017 356.585 556.583 356.632C585.455 357.475 614.528 357.575 643.802 356.933C654.704 356.692 668.92 359.583 658.559 374.22C658.003 375.002 657.27 375.64 656.421 376.08C655.572 376.52 654.633 376.75 653.68 376.75H556.583C555.016 376.75 553.511 377.366 552.386 378.468C551.262 379.57 550.606 381.071 550.559 382.653L549.294 439.153C549.274 440.182 548.992 441.189 548.475 442.075C547.958 442.961 547.224 443.696 546.343 444.212C536.786 449.834 531.907 447.304 531.706 436.622C530.702 384.018 530.14 331.434 530.019 278.869C530.019 277.272 529.385 275.739 528.255 274.61C527.126 273.48 525.593 272.846 523.996 272.846H438.463C436.876 272.846 435.353 273.472 434.225 274.588C433.097 275.705 432.456 277.222 432.44 278.809L431.717 343.802C431.719 345.116 431.284 346.395 430.478 347.44C429.672 348.486 428.541 349.239 427.26 349.584C414.128 352.957 409.35 346.914 412.924 331.454C414.249 325.671 413.787 307.983 411.539 278.388C411.417 276.875 410.729 275.464 409.612 274.436C408.496 273.409 407.032 272.841 405.515 272.846H301.25C299.652 272.846 298.12 272.211 296.99 271.082C295.861 269.952 295.226 268.42 295.226 266.822V179.663C295.226 178.097 294.61 176.591 293.508 175.466C292.406 174.342 290.905 173.687 289.323 173.64L203.489 171.772C202.688 171.756 201.892 171.9 201.147 172.196C200.402 172.491 199.724 172.933 199.152 173.494C198.58 174.055 198.125 174.724 197.815 175.463C197.505 176.201 197.345 176.994 197.345 177.796V358.68C197.345 360.277 197.98 361.81 199.11 362.939C200.239 364.069 201.771 364.703 203.369 364.703H308.719C310.316 364.703 311.848 365.337 312.978 366.467C314.107 367.597 314.742 369.129 314.742 370.727L314.802 458.127C314.802 458.923 314.96 459.711 315.267 460.446C315.573 461.18 316.022 461.847 316.588 462.407C317.154 462.968 317.825 463.41 318.562 463.709C319.3 464.008 320.09 464.158 320.886 464.15L422.441 463.307C424.038 463.291 425.577 463.917 426.718 465.046C427.859 466.176 428.509 467.717 428.525 469.33V476.257C428.525 477.85 427.901 479.379 426.786 480.517C425.671 481.654 424.154 482.309 422.561 482.341L320.765 483.545C319.178 483.561 317.662 484.203 316.545 485.331C315.429 486.458 314.802 487.982 314.802 489.569V647.202C314.803 648.819 314.153 650.379 312.995 651.539C302.695 661.598 295.106 653.045 295.106 641.721C295.346 590.843 295.326 540.005 295.045 489.208C295.045 487.621 294.419 486.097 293.303 484.97C292.186 483.842 290.669 483.2 289.082 483.184L203.248 482.461C202.452 482.454 201.663 482.604 200.925 482.903C200.187 483.202 199.516 483.644 198.95 484.204C198.384 484.764 197.935 485.431 197.629 486.166C197.322 486.901 197.164 487.689 197.164 488.485L197.466 568.415C197.466 569.851 196.953 571.24 196.02 572.331C183.552 587.088 175.902 573.475 176.143 561.308C176.625 537.335 176.484 513.401 175.721 489.508C175.674 487.942 175.019 486.457 173.894 485.366C172.77 484.275 171.264 483.665 169.698 483.666H64.83C63.2325 483.666 61.7005 483.032 60.5708 481.902C59.4412 480.772 58.8065 479.24 58.8065 477.642V390.303C58.8065 388.705 58.1718 387.173 57.0422 386.043C55.9126 384.914 54.3806 384.279 52.7831 384.279H-39.9175C-41.0127 384.277 -42.0849 383.978 -43.019 383.415C-43.953 382.853 -44.7135 382.048 -45.2182 381.087C-51.0007 370.184 -42.8086 364.763 -32.6291 364.763C-4.11816 364.804 24.3727 364.703 52.8434 364.462C54.4249 364.462 55.9416 363.828 57.0599 362.698C58.1782 361.568 58.8065 360.036 58.8065 358.438V180.145C58.8072 178.578 58.1974 177.073 57.1066 175.949C56.0157 174.824 54.53 174.169 52.964 174.122C21.602 173.198 -9.35868 173.038 -39.9175 173.64C-51.2416 173.881 -60.7583 167.014 -50.9401 155.991C-50.3892 155.363 -49.7141 154.857 -48.9571 154.505C-48.2001 154.152 -47.378 153.961 -46.5432 153.943L53.0239 151.956C54.6109 151.924 56.1214 151.267 57.2268 150.128C58.3322 148.989 58.9433 147.459 58.9271 145.872L58.5054 79.4936C58.5054 77.9121 57.8771 76.3951 56.7588 75.2768C55.6405 74.1585 54.1238 73.5305 52.5423 73.5305ZM177.592 76.2069C177.592 75.7481 177.503 75.2936 177.328 74.8694C177.153 74.4453 176.896 74.0599 176.573 73.7349C176.249 73.4099 175.864 73.1524 175.441 72.9761C175.017 72.7998 174.563 72.7085 174.104 72.7077L81.9462 72.5467C81.0198 72.5451 80.1305 72.9118 79.4742 73.5658C78.8179 74.2197 78.4484 75.1069 78.4466 76.0334L78.3194 148.797C78.3186 149.256 78.4082 149.71 78.583 150.134C78.7579 150.559 79.0147 150.944 79.3385 151.269C79.6624 151.594 80.047 151.851 80.4705 152.028C80.8941 152.204 81.3481 152.295 81.8069 152.296L173.965 152.457C174.891 152.459 175.781 152.092 176.437 151.438C177.093 150.784 177.463 149.897 177.464 148.97L177.592 76.2069ZM295.48 74.3635C295.481 74.15 295.44 73.9384 295.358 73.7408C295.277 73.5432 295.158 73.3636 295.008 73.2121C294.857 73.0606 294.678 72.9401 294.481 72.8577C294.284 72.7753 294.073 72.7327 293.859 72.732L199.172 72.4018C198.958 72.4011 198.747 72.4421 198.549 72.5231C198.351 72.6042 198.172 72.7234 198.02 72.8739C197.868 73.0244 197.748 73.2033 197.666 73.4003C197.584 73.5974 197.541 73.8088 197.54 74.0224L197.272 150.64C197.271 150.853 197.312 151.065 197.394 151.262C197.475 151.46 197.594 151.64 197.744 151.792C197.895 151.943 198.074 152.063 198.271 152.145C198.468 152.228 198.679 152.271 198.893 152.272L293.581 152.602C293.794 152.603 294.006 152.562 294.203 152.481C294.401 152.4 294.58 152.28 294.732 152.13C294.884 151.979 295.004 151.801 295.086 151.604C295.169 151.406 295.211 151.195 295.212 150.981L295.48 74.3635ZM412.016 75.7341C412.015 75.307 411.931 74.8843 411.766 74.49C411.602 74.0957 411.362 73.7378 411.059 73.4364C410.756 73.1349 410.398 72.8954 410.003 72.7327C409.608 72.57 409.185 72.4871 408.758 72.4878L318.045 72.6459C317.182 72.6475 316.356 72.9915 315.747 73.6025C315.138 74.2135 314.797 75.0414 314.798 75.904L314.927 149.993C314.928 150.42 315.013 150.842 315.177 151.237C315.341 151.631 315.581 151.989 315.884 152.29C316.186 152.592 316.546 152.831 316.94 152.994C317.335 153.157 317.759 153.24 318.186 153.239L408.898 153.081C409.761 153.079 410.588 152.735 411.197 152.124C411.805 151.513 412.147 150.685 412.145 149.823L412.016 75.7341ZM412.812 177.269C412.815 176.771 412.719 176.277 412.531 175.816C412.342 175.354 412.065 174.935 411.715 174.58C411.364 174.226 410.947 173.944 410.488 173.751C410.028 173.558 409.535 173.457 409.037 173.455L318.807 172.983C318.309 172.98 317.815 173.076 317.354 173.264C316.892 173.452 316.472 173.729 316.118 174.08C315.764 174.43 315.482 174.847 315.289 175.307C315.096 175.766 314.995 176.259 314.993 176.758L314.613 249.158C314.611 249.656 314.706 250.15 314.895 250.611C315.083 251.073 315.36 251.493 315.71 251.847C316.061 252.201 316.478 252.483 316.937 252.676C317.397 252.869 317.89 252.97 318.388 252.972L408.618 253.445C409.116 253.447 409.61 253.352 410.072 253.164C410.533 252.975 410.953 252.698 411.307 252.348C411.661 251.997 411.943 251.58 412.136 251.12C412.329 250.661 412.43 250.168 412.432 249.67L412.812 177.269ZM530.333 176.306C530.335 175.895 530.256 175.487 530.101 175.106C529.945 174.725 529.717 174.379 529.427 174.086C529.138 173.794 528.794 173.561 528.414 173.402C528.035 173.242 527.628 173.16 527.217 173.158L435.662 172.677C435.251 172.675 434.843 172.754 434.462 172.91C434.082 173.065 433.735 173.295 433.443 173.584C433.151 173.873 432.918 174.217 432.758 174.597C432.599 174.976 432.516 175.382 432.514 175.794L432.126 249.881C432.124 250.292 432.203 250.7 432.358 251.081C432.513 251.461 432.743 251.808 433.032 252.1C433.321 252.393 433.665 252.625 434.044 252.784C434.424 252.944 434.83 253.027 435.242 253.029L526.797 253.509C527.208 253.511 527.616 253.432 527.997 253.276C528.378 253.121 528.724 252.892 529.016 252.603C529.309 252.313 529.541 251.969 529.7 251.59C529.86 251.211 529.943 250.804 529.945 250.393L530.333 176.306ZM177.25 176.221C177.251 175.881 177.185 175.544 177.056 175.23C176.927 174.915 176.738 174.628 176.498 174.387C176.258 174.146 175.973 173.954 175.659 173.823C175.346 173.692 175.009 173.623 174.669 173.622L81.3065 173.297C80.9664 173.295 80.6293 173.361 80.3146 173.49C79.9999 173.619 79.7137 173.809 79.4724 174.049C79.231 174.288 79.0393 174.573 78.908 174.887C78.7768 175.201 78.7085 175.537 78.7073 175.877L78.0588 361.88C78.0576 362.22 78.1231 362.558 78.2522 362.872C78.3812 363.187 78.5713 363.473 78.811 363.715C79.0506 363.956 79.3354 364.148 79.6492 364.279C79.963 364.41 80.2995 364.478 80.6396 364.48L174.002 364.805C174.342 364.806 174.679 364.741 174.994 364.612C175.309 364.483 175.595 364.293 175.836 364.053C176.078 363.813 176.269 363.529 176.401 363.215C176.532 362.901 176.6 362.565 176.601 362.224L177.25 176.221ZM177.413 385.992C177.414 385.576 177.25 385.178 176.956 384.884C176.663 384.589 176.265 384.424 175.85 384.423L80.3187 384.256C79.9034 384.256 79.5047 384.42 79.2106 384.713C78.9165 385.006 78.7507 385.404 78.75 385.82L78.6183 461.474C78.6177 461.889 78.7818 462.288 79.075 462.582C79.3681 462.876 79.7659 463.041 80.1812 463.042L175.713 463.209C176.128 463.21 176.527 463.045 176.821 462.752C177.115 462.459 177.281 462.062 177.281 461.646L177.413 385.992ZM295.356 387.04C295.357 386.7 295.292 386.363 295.163 386.048C295.033 385.734 294.844 385.448 294.604 385.206C294.364 384.965 294.08 384.773 293.766 384.642C293.452 384.51 293.115 384.442 292.775 384.441L200.135 384.117C199.795 384.116 199.458 384.182 199.144 384.312C198.829 384.441 198.543 384.63 198.301 384.87C198.06 385.109 197.868 385.395 197.737 385.709C197.606 386.022 197.537 386.359 197.536 386.699L197.276 461.268C197.274 461.609 197.34 461.946 197.469 462.26C197.598 462.575 197.788 462.861 198.028 463.102C198.267 463.344 198.552 463.536 198.866 463.667C199.18 463.798 199.516 463.866 199.856 463.868L292.496 464.191C292.837 464.192 293.174 464.126 293.488 463.997C293.803 463.868 294.089 463.679 294.331 463.439C294.572 463.199 294.764 462.914 294.895 462.6C295.026 462.286 295.094 461.95 295.095 461.61L295.356 387.04Z"
                  stroke="#7B74FF" stroke-opacity="0.1" stroke-width="3.5"/>
        </g>
    </g>
    <defs>
        <clipPath id="clip0_13_62">
            <rect width="1920" height="656" fill="white"/>
        </clipPath>
    </defs>
</svg>
