<svg width="512" height="512" viewBox="0 0 512 512" fill="none" xmlns="http://www.w3.org/2000/svg">
    <path d="M242 392C242 374.327 256.327 360 274 360H378C395.673 360 410 374.327 410 392V392C410 409.673 395.673 424 378 424H274C256.327 424 242 409.673 242 392V392Z"
          fill="#2CDA9D"/>
    <path fill-rule="evenodd" clip-rule="evenodd"
          d="M134 88C116.327 88 102 102.327 102 120V200V392C102 409.673 116.327 424 134 424C151.673 424 166 409.673 166 392V301.222C180.548 308.133 196.822 312 214 312C275.856 312 326 261.856 326 200C326 138.144 275.856 88 214 88C194.527 88 176.214 92.9698 160.261 101.71C154.479 93.4223 144.872 88 134 88ZM166 200C166 226.51 187.49 248 214 248C240.51 248 262 226.51 262 200C262 173.49 240.51 152 214 152C187.49 152 166 173.49 166 200Z"
          fill="#2454FF"/>
</svg>
