<svg width="32" height="32" viewBox="0 0 32 32" fill="none" xmlns="http://www.w3.org/2000/svg">
    <path d="M25.5 8V21C25.5 21.3978 25.342 21.7794 25.0607 22.0607C24.7794 22.342 24.3978 22.5 24 22.5C23.6022 22.5 23.2207 22.342 22.9393 22.0607C22.658 21.7794 22.5 21.3978 22.5 21V11.625L9.06126 25.0613C8.77946 25.343 8.39727 25.5014 7.99876 25.5014C7.60024 25.5014 7.21805 25.343 6.93626 25.0613C6.65446 24.7795 6.49615 24.3973 6.49615 23.9988C6.49615 23.6002 6.65446 23.218 6.93626 22.9363L20.375 9.5H11C10.6022 9.5 10.2207 9.34196 9.93935 9.06066C9.65804 8.77936 9.50001 8.39782 9.50001 8C9.50001 7.60218 9.65804 7.22064 9.93935 6.93934C10.2207 6.65804 10.6022 6.5 11 6.5H24C24.3978 6.5 24.7794 6.65804 25.0607 6.93934C25.342 7.22064 25.5 7.60218 25.5 8Z"
          fill="#343330"/>
</svg>
