<svg width="24" height="24" viewBox="0 0 24 24" fill="none" xmlns="http://www.w3.org/2000/svg">
    <path d="M22.8749 9C22.8749 9.29837 22.7564 9.58452 22.5454 9.7955C22.3345 10.0065 22.0483 10.125 21.7499 10.125H20.6249V11.25C20.6249 11.5484 20.5064 11.8345 20.2954 12.0455C20.0845 12.2565 19.7983 12.375 19.4999 12.375C19.2016 12.375 18.9154 12.2565 18.7044 12.0455C18.4935 11.8345 18.3749 11.5484 18.3749 11.25V10.125H17.2499C16.9516 10.125 16.6654 10.0065 16.4544 9.7955C16.2435 9.58452 16.1249 9.29837 16.1249 9C16.1249 8.70163 16.2435 8.41548 16.4544 8.2045C16.6654 7.99353 16.9516 7.875 17.2499 7.875H18.3749V6.75C18.3749 6.45163 18.4935 6.16548 18.7044 5.9545C18.9154 5.74353 19.2016 5.625 19.4999 5.625C19.7983 5.625 20.0845 5.74353 20.2954 5.9545C20.5064 6.16548 20.6249 6.45163 20.6249 6.75V7.875H21.7499C22.0483 7.875 22.3345 7.99353 22.5454 8.2045C22.7564 8.41548 22.8749 8.70163 22.8749 9ZM13.4999 5.625H13.8749V6C13.8749 6.29837 13.9935 6.58452 14.2044 6.7955C14.4154 7.00647 14.7016 7.125 14.9999 7.125C15.2983 7.125 15.5845 7.00647 15.7954 6.7955C16.0064 6.58452 16.1249 6.29837 16.1249 6V5.625H16.4999C16.7983 5.625 17.0845 5.50647 17.2954 5.2955C17.5064 5.08452 17.6249 4.79837 17.6249 4.5C17.6249 4.20163 17.5064 3.91548 17.2954 3.7045C17.0845 3.49353 16.7983 3.375 16.4999 3.375H16.1249V3C16.1249 2.70163 16.0064 2.41548 15.7954 2.2045C15.5845 1.99353 15.2983 1.875 14.9999 1.875C14.7016 1.875 14.4154 1.99353 14.2044 2.2045C13.9935 2.41548 13.8749 2.70163 13.8749 3V3.375H13.4999C13.2016 3.375 12.9154 3.49353 12.7044 3.7045C12.4935 3.91548 12.3749 4.20163 12.3749 4.5C12.3749 4.79837 12.4935 5.08452 12.7044 5.2955C12.9154 5.50647 13.2016 5.625 13.4999 5.625ZM20.6071 14.0981C20.7374 14.2494 20.8251 14.4327 20.8612 14.6291C20.8973 14.8254 20.8805 15.0279 20.8124 15.2156C20.2707 16.6941 19.3653 18.0124 18.1797 19.0487C16.9942 20.085 15.5667 20.806 14.029 21.1451C12.4913 21.4843 10.893 21.4307 9.38151 20.9892C7.87002 20.5478 6.49407 19.7327 5.38064 18.6193C4.26721 17.5059 3.45216 16.1299 3.01072 14.6184C2.56927 13.1069 2.51565 11.5086 2.85481 9.97093C3.19396 8.43326 3.91496 7.00578 4.95127 5.82023C5.98758 4.63468 7.30581 3.72925 8.78432 3.1875C8.97177 3.11901 9.17408 3.10162 9.37047 3.13711C9.56687 3.17261 9.75029 3.25971 9.90191 3.38948C10.0535 3.51926 10.1679 3.68703 10.2333 3.87559C10.2987 4.06415 10.3127 4.26672 10.274 4.4625C10.1747 4.96897 10.1248 5.48389 10.1249 6C10.1272 8.08789 10.9576 10.0896 12.4339 11.566C13.9103 13.0424 15.912 13.8728 17.9999 13.875C18.5151 13.8749 19.0291 13.825 19.5346 13.7259C19.7303 13.6873 19.9328 13.7014 20.1213 13.7668C20.3097 13.8322 20.4774 13.9466 20.6071 14.0981ZM17.8124 16.125C15.1929 16.0739 12.6948 15.0105 10.8421 13.1578C8.98945 11.3051 7.92605 8.80708 7.87494 6.1875C7.03181 6.78846 6.32978 7.56595 5.81773 8.46586C5.30568 9.36576 4.99592 10.3665 4.91 11.3983C4.82408 12.4301 4.96407 13.4682 5.32023 14.4404C5.67639 15.4126 6.24016 16.2955 6.97229 17.0277C7.70442 17.7598 8.58731 18.3236 9.55951 18.6797C10.5317 19.0359 11.5699 19.1759 12.6017 19.0899C13.6335 19.004 14.6342 18.6943 15.5341 18.1822C16.434 17.6702 17.2115 16.9681 17.8124 16.125Z"
          fill="#343330"/>
</svg>
