<svg width="24" height="24" viewBox="0 0 24 24" fill="none" xmlns="http://www.w3.org/2000/svg">
    <path d="M21 6.75H19.875V6C19.875 5.30381 19.5984 4.63613 19.1062 4.14384C18.6139 3.65156 17.9462 3.375 17.25 3.375H3.75C3.05381 3.375 2.38613 3.65156 1.89384 4.14384C1.40156 4.63613 1.125 5.30381 1.125 6V14.25C1.125 14.9462 1.40156 15.6139 1.89384 16.1062C2.38613 16.5984 3.05381 16.875 3.75 16.875H12.75V18C12.75 18.6962 13.0266 19.3639 13.5188 19.8562C14.0111 20.3484 14.6788 20.625 15.375 20.625H21C21.6962 20.625 22.3639 20.3484 22.8562 19.8562C23.3484 19.3639 23.625 18.6962 23.625 18V9.375C23.625 8.67881 23.3484 8.01113 22.8562 7.51884C22.3639 7.02656 21.6962 6.75 21 6.75ZM3.75 14.625C3.65054 14.625 3.55516 14.5855 3.48484 14.5152C3.41451 14.4448 3.375 14.3495 3.375 14.25V6C3.375 5.90054 3.41451 5.80516 3.48484 5.73484C3.55516 5.66451 3.65054 5.625 3.75 5.625H17.25C17.3495 5.625 17.4448 5.66451 17.5152 5.73484C17.5855 5.80516 17.625 5.90054 17.625 6V6.75H15.375C14.6788 6.75 14.0111 7.02656 13.5188 7.51884C13.0266 8.01113 12.75 8.67881 12.75 9.375V14.625H3.75ZM21.375 18C21.375 18.0995 21.3355 18.1948 21.2652 18.2652C21.1948 18.3355 21.0995 18.375 21 18.375H15.375C15.2755 18.375 15.1802 18.3355 15.1098 18.2652C15.0395 18.1948 15 18.0995 15 18V9.375C15 9.27554 15.0395 9.18016 15.1098 9.10983C15.1802 9.03951 15.2755 9 15.375 9H21C21.0995 9 21.1948 9.03951 21.2652 9.10983C21.3355 9.18016 21.375 9.27554 21.375 9.375V18ZM11.625 19.5C11.625 19.7984 11.5065 20.0845 11.2955 20.2955C11.0845 20.5065 10.7984 20.625 10.5 20.625H8.25C7.95163 20.625 7.66548 20.5065 7.4545 20.2955C7.24353 20.0845 7.125 19.7984 7.125 19.5C7.125 19.2016 7.24353 18.9155 7.4545 18.7045C7.66548 18.4935 7.95163 18.375 8.25 18.375H10.5C10.7984 18.375 11.0845 18.4935 11.2955 18.7045C11.5065 18.9155 11.625 19.2016 11.625 19.5ZM19.875 11.625C19.875 11.9234 19.7565 12.2095 19.5455 12.4205C19.3345 12.6315 19.0484 12.75 18.75 12.75H17.625C17.3266 12.75 17.0405 12.6315 16.8295 12.4205C16.6185 12.2095 16.5 11.9234 16.5 11.625C16.5 11.3266 16.6185 11.0405 16.8295 10.8295C17.0405 10.6185 17.3266 10.5 17.625 10.5H18.75C19.0484 10.5 19.3345 10.6185 19.5455 10.8295C19.7565 11.0405 19.875 11.3266 19.875 11.625Z"
          fill="#343330"/>
</svg>
