<svg width="256" height="256" viewBox="0 0 256 256" fill="none" xmlns="http://www.w3.org/2000/svg">
    <path d="M130.23 207.439C121.443 198.652 121.443 184.406 130.23 175.619L146.14 159.709L162.05 175.619C170.836 184.406 170.836 198.652 162.05 207.439C153.263 216.226 139.017 216.226 130.23 207.439Z"
          fill="#142F8E"/>
    <path fill-rule="evenodd" clip-rule="evenodd"
          d="M98.4099 143.8C89.6231 152.586 89.6231 166.833 98.4099 175.619L130.23 207.439C121.443 198.652 121.443 184.406 130.23 175.619L162.05 143.8C170.836 135.013 170.836 120.767 162.05 111.98C153.263 103.193 139.017 103.193 130.23 111.98L98.4099 143.8Z"
          fill="#85A0FF"/>
    <path fill-rule="evenodd" clip-rule="evenodd"
          d="M66.5901 111.98C57.8033 120.766 57.8033 135.013 66.5901 143.8L98.4099 175.619C89.6231 166.832 89.6231 152.586 98.4099 143.8L162.05 80.1599C170.836 71.3731 170.836 57.1269 162.05 48.3401C153.263 39.5533 139.016 39.5533 130.23 48.3401L66.5901 111.98Z"
          fill="#2454FF"/>
</svg>
