<svg width="256" height="256" viewBox="0 0 256 256" fill="none" xmlns="http://www.w3.org/2000/svg">
    <g clip-path="url(#clip0_22_70)">
        <path d="M231 0H25C11.1929 0 0 11.1929 0 25V231C0 244.807 11.1929 256 25 256H231C244.807 256 256 244.807 256 231V25C256 11.1929 244.807 0 231 0Z"
              fill="#F7DF1E"/>
        <path d="M171.967 200.001C177.124 208.421 183.832 214.609 195.698 214.609C205.666 214.609 212.033 209.627 212.033 202.744C212.033 194.495 205.491 191.573 194.519 186.774L188.505 184.194C171.146 176.798 159.614 167.534 159.614 147.948C159.614 129.906 173.361 116.171 194.845 116.171C210.139 116.171 221.135 121.494 229.059 135.432L210.326 147.46C206.202 140.064 201.752 137.151 194.845 137.151C187.798 137.151 183.333 141.621 183.333 147.46C183.333 154.677 187.802 157.598 198.124 162.068L204.138 164.645C224.577 173.409 236.117 182.345 236.117 202.435C236.117 224.093 219.104 235.959 196.255 235.959C173.913 235.959 159.48 225.312 152.418 211.358L171.967 200.001ZM86.9872 202.086C90.7663 208.79 94.204 214.459 102.469 214.459C110.373 214.459 115.359 211.367 115.359 199.343V117.545H139.414V199.668C139.414 224.577 124.81 235.914 103.493 235.914C84.2322 235.914 73.0779 225.946 67.4053 213.941L86.9872 202.086Z"
              fill="black"/>
    </g>
    <defs>
        <clipPath id="clip0_22_70">
            <rect width="256" height="256" fill="white"/>
        </clipPath>
    </defs>
</svg>
