<svg width="256" height="157" viewBox="0 0 256 157" fill="none" xmlns="http://www.w3.org/2000/svg">
    <g clip-path="url(#clip0_22_94)">
        <path d="M126.531 156.787C125.686 156.787 124.847 156.566 124.107 156.139L116.388 151.57C115.236 150.925 115.798 150.697 116.178 150.566C117.715 150.027 118.027 149.906 119.668 148.974C119.84 148.876 120.066 148.91 120.243 149.015L126.172 152.533C126.386 152.649 126.69 152.649 126.888 152.533L150.007 139.188C150.221 139.067 150.36 138.818 150.36 138.563V111.885C150.36 111.619 150.221 111.382 150.003 111.249L126.893 97.9155C126.679 97.7882 126.395 97.7882 126.181 97.9155L103.076 111.249C102.852 111.376 102.71 111.625 102.71 111.879V138.558C102.71 138.812 102.849 139.055 103.068 139.177L109.399 142.834C112.837 144.553 114.938 142.527 114.938 140.49V114.16C114.938 113.783 115.233 113.494 115.609 113.494H118.537C118.902 113.494 119.203 113.783 119.203 114.16V140.502C119.203 145.085 116.703 147.718 112.357 147.718C111.02 147.718 109.967 147.718 107.027 146.272L100.962 142.776C99.4632 141.908 98.5372 140.288 98.5372 138.558V111.879C98.5372 110.143 99.4632 108.523 100.962 107.667L124.104 94.316C125.568 93.4884 127.513 93.4884 128.965 94.316L152.079 107.672C153.572 108.535 154.503 110.149 154.503 111.885V138.563C154.503 140.294 153.572 141.908 152.079 142.776L128.965 156.127C128.225 156.555 127.385 156.775 126.529 156.775"
              fill="#689F63"/>
        <path d="M133.672 138.404C123.557 138.404 121.436 133.761 121.436 129.866C121.436 129.496 121.734 129.201 122.105 129.201H125.091C125.421 129.201 125.699 129.441 125.751 129.766C126.203 132.809 127.545 134.344 133.662 134.344C138.535 134.344 140.606 133.243 140.606 130.659C140.606 129.172 140.016 128.067 132.447 127.326C126.116 126.701 122.204 125.306 122.204 120.243C122.204 115.579 126.139 112.801 132.73 112.801C140.132 112.801 143.801 115.37 144.264 120.891C144.281 121.082 144.212 121.267 144.084 121.406C143.957 121.539 143.778 121.62 143.592 121.62H140.589C140.277 121.62 140.005 121.4 139.941 121.099C139.217 117.899 137.47 116.875 132.719 116.875C127.4 116.875 126.781 118.727 126.781 120.116C126.781 121.8 127.51 122.291 134.686 123.24C141.793 124.184 145.167 125.515 145.167 130.509C145.167 135.544 140.965 138.431 133.639 138.431M161.798 110.139H162.574C163.21 110.139 163.332 109.693 163.332 109.433C163.332 108.75 162.863 108.75 162.603 108.75H161.804L161.798 110.139ZM160.855 107.951H162.574C163.164 107.951 164.321 107.951 164.321 109.271C164.321 110.191 163.731 110.382 163.378 110.498C164.067 110.544 164.113 110.995 164.206 111.632C164.252 112.031 164.327 112.72 164.466 112.951H163.407C163.378 112.72 163.216 111.447 163.216 111.377C163.147 111.094 163.048 110.955 162.695 110.955H161.822V112.957H160.855V107.951ZM158.789 110.44C158.789 112.511 160.462 114.19 162.516 114.19C164.588 114.19 166.26 112.477 166.26 110.44C166.26 108.362 164.565 106.713 162.51 106.713C160.485 106.713 158.783 108.339 158.783 110.434M166.978 110.451C166.978 112.905 164.97 114.907 162.522 114.907C160.091 114.907 158.066 112.928 158.066 110.451C158.066 107.928 160.137 105.995 162.522 105.995C164.923 105.995 166.972 107.934 166.972 110.451"
              fill="#689F63"/>
        <path fill-rule="evenodd" clip-rule="evenodd"
              d="M54.9397 52.4011C54.9397 51.3363 54.3784 50.3583 53.4594 49.8288L28.948 35.7259C28.5342 35.4828 28.0707 35.3555 27.6008 35.3382H27.3473C26.8774 35.3555 26.4139 35.4828 25.9932 35.7259L1.48293 49.8288C0.569746 50.3612 0.000305176 51.3392 0.000305176 52.404L0.0541242 90.3899C0.0541242 90.9165 0.326113 91.4084 0.789073 91.6688C1.24046 91.9466 1.80758 91.9466 2.25897 91.6688L16.8306 83.3239C17.7508 82.7765 18.3121 81.8089 18.3121 80.7545V63.0087C18.3121 61.9497 18.8734 60.9717 19.7907 60.4451L25.9943 56.8722C26.455 56.606 26.9608 56.474 27.4758 56.474C27.9827 56.474 28.5001 56.6048 28.948 56.8716L35.1488 60.4433C36.0666 60.9699 36.6303 61.9479 36.6303 63.007V80.7516C36.6303 81.8049 37.1991 82.7771 38.1146 83.321L52.677 91.6601C53.1342 91.9321 53.7031 91.9321 54.1585 91.6601C54.6076 91.3997 54.8923 90.9078 54.8923 90.3812L54.9397 52.4011ZM170.603 72.1788C170.603 72.4432 170.463 72.688 170.233 72.8188L161.814 77.6718C161.585 77.8032 161.303 77.8032 161.075 77.6718L152.655 72.8188C152.423 72.6874 152.285 72.4427 152.285 72.1788V62.4589C152.285 62.1939 152.423 61.9497 152.649 61.8166L161.063 56.9555C161.295 56.8224 161.578 56.8224 161.81 56.9555L170.23 61.8166C170.461 61.9497 170.6 62.1939 170.6 62.4589L170.603 72.1788ZM172.878 0.187373C172.418 -0.0684118 171.859 -0.0614674 171.405 0.202998C170.954 0.4692 170.675 0.955308 170.675 1.48192V39.0974C170.675 39.4678 170.478 39.8092 170.158 39.9944C169.839 40.1796 169.443 40.1796 169.122 39.9944L162.982 36.458C162.067 35.929 160.941 35.929 160.023 36.458L135.504 50.6089C134.588 51.1355 134.023 52.1135 134.023 53.1667V81.4767C134.023 82.5358 134.588 83.508 135.504 84.0404L160.023 98.2012C160.939 98.7278 162.066 98.7278 162.985 98.2012L187.504 84.0346C188.419 83.5022 188.986 82.53 188.986 81.471V10.9159C188.986 9.84182 188.401 8.85398 187.464 8.3291L172.878 0.187373ZM254.528 62.2031C255.439 61.6742 256 60.6974 256 59.6441V52.7831C256 51.7275 255.438 50.7536 254.526 50.2223L230.162 36.0789C229.242 35.5465 228.114 35.5465 227.194 36.0789L202.68 50.2281C201.76 50.7605 201.199 51.7327 201.199 52.7918V81.0902C201.199 82.155 201.771 83.1388 202.692 83.6654L227.049 97.5484C227.946 98.0634 229.046 98.0692 229.954 97.5657L244.688 89.3771C245.151 89.1167 245.446 88.6248 245.446 88.0924C245.446 87.56 245.162 87.0623 244.699 86.8019L220.035 72.6469C219.572 72.3865 219.289 71.8946 219.289 71.368V62.4908C219.289 61.9607 219.566 61.4722 220.029 61.2084L227.703 56.7813C228.16 56.5151 228.722 56.5151 229.179 56.7813L236.858 61.2084C237.315 61.4688 237.599 61.9607 237.599 62.4873V69.4664C237.599 69.993 237.882 70.4849 238.339 70.7511C238.797 71.0115 239.364 71.0115 239.821 70.7453L254.528 62.2031Z"
              fill="#333333"/>
        <path fill-rule="evenodd" clip-rule="evenodd"
              d="M228.319 60.8792C228.493 60.7768 228.71 60.7768 228.886 60.8792L233.591 63.5933C233.767 63.6951 233.875 63.8826 233.875 64.0852V69.5192C233.875 69.7217 233.767 69.9092 233.591 70.0111L228.886 72.7252C228.71 72.8276 228.493 72.8276 228.319 72.7252L223.617 70.0111C223.438 69.9092 223.328 69.7217 223.328 69.5192V64.0852C223.328 63.8826 223.432 63.6951 223.612 63.5933L228.319 60.8792Z"
              fill="#689F63"/>
        <mask id="mask0_22_94" style="mask-type:luminance" maskUnits="userSpaceOnUse" x="67" y="35" width="55"
              height="64">
            <path d="M93.0112 36.2202L68.6306 50.2924C67.7174 50.819 67.1572 51.7912 67.1572 52.8422V81.0063C67.1572 82.0578 67.7174 83.0295 68.6306 83.5561L93.0129 97.6393C93.9244 98.1642 95.0482 98.1642 95.9585 97.6393L120.337 83.5561C121.245 83.0295 121.807 82.0572 121.807 81.0063V52.8422C121.807 51.7912 121.245 50.819 120.331 50.2924L95.9562 36.2202C95.499 35.958 94.9898 35.8267 94.4805 35.8267C93.9713 35.8267 93.462 35.958 93.0048 36.2202"
                  fill="white"/>
        </mask>
        <g mask="url(#mask0_22_94)">
            <path d="M146.444 47.9029L77.7439 14.2284L42.5185 86.0879L111.217 119.764L146.444 47.9029Z"
                  fill="url(#paint0_linear_22_94)"/>
        </g>
        <mask id="mask1_22_94" style="mask-type:luminance" maskUnits="userSpaceOnUse" x="67" y="35" width="55"
              height="64">
            <path d="M67.7614 82.7945C67.9946 83.0972 68.2863 83.3594 68.6295 83.5561L89.5437 95.6365L93.0274 97.6388C93.5483 97.9397 94.142 98.067 94.7254 98.0236C94.9198 98.008 95.1142 97.9715 95.3041 97.9177L121.018 50.8347C120.821 50.6206 120.591 50.4412 120.333 50.2907L104.369 41.072L95.9302 36.2167C95.6906 36.0779 95.4308 35.9795 95.1663 35.91L67.7614 82.7945Z"
                  fill="white"/>
        </mask>
        <g mask="url(#mask1_22_94)">
            <path d="M38.0579 57.8631L86.5674 123.518L150.722 76.1193L102.21 10.4658L38.0579 57.8631Z"
                  fill="url(#paint1_linear_22_94)"/>
        </g>
        <mask id="mask2_22_94" style="mask-type:luminance" maskUnits="userSpaceOnUse" x="68" y="35" width="54"
              height="64">
            <path d="M94.1894 35.8429C93.7803 35.8834 93.3804 36.0107 93.0118 36.2202L68.7006 50.2519L94.9157 98.0005C95.2803 97.9484 95.6391 97.8268 95.9632 97.6393L120.344 83.5561C121.096 83.1198 121.611 82.3813 121.767 81.5445L95.043 35.8909C94.8463 35.8522 94.6495 35.8319 94.447 35.8319C94.366 35.8319 94.2849 35.836 94.2039 35.8435"
                  fill="white"/>
        </mask>
        <g mask="url(#mask2_22_94)">
            <path d="M68.7 35.8319V98.0016H121.757V35.8319H68.7Z" fill="url(#paint2_linear_22_94)"/>
        </g>
    </g>
    <defs>
        <linearGradient id="paint0_linear_22_94" x1="112.073" y1="31.0127" x2="76.8505" y2="102.867"
                        gradientUnits="userSpaceOnUse">
            <stop offset="0.3" stop-color="#3E863D"/>
            <stop offset="0.5" stop-color="#55934F"/>
            <stop offset="0.8" stop-color="#5AAD45"/>
        </linearGradient>
        <linearGradient id="paint1_linear_22_94" x1="62.6034" y1="91.067" x2="126.761" y2="43.6625"
                        gradientUnits="userSpaceOnUse">
            <stop offset="0.57" stop-color="#3E863D"/>
            <stop offset="0.72" stop-color="#619857"/>
            <stop offset="1" stop-color="#76AC64"/>
        </linearGradient>
        <linearGradient id="paint2_linear_22_94" x1="68.7179" y1="66.9185" x2="121.767" y2="66.9185"
                        gradientUnits="userSpaceOnUse">
            <stop offset="0.16" stop-color="#6BBF47"/>
            <stop offset="0.38" stop-color="#79B461"/>
            <stop offset="0.47" stop-color="#75AC64"/>
            <stop offset="0.7" stop-color="#659E5A"/>
            <stop offset="0.9" stop-color="#3E863D"/>
        </linearGradient>
        <clipPath id="clip0_22_94">
            <rect width="256" height="156.787" fill="white"/>
        </clipPath>
    </defs>
</svg>
