<svg width="256" height="256" viewBox="0 0 256 256" fill="none" xmlns="http://www.w3.org/2000/svg">
    <g clip-path="url(#clip0_22_77)">
        <path d="M255.986 70.908C255.971 68.3333 255.942 65.76 255.871 63.1823C255.721 57.5752 255.39 51.9173 254.393 46.3701C253.382 40.7367 251.729 35.4986 249.124 30.3812C246.566 25.3556 243.223 20.7567 239.235 16.7687C235.248 12.7806 230.649 9.43782 225.621 6.87911C220.508 4.27687 215.269 2.62423 209.641 1.61299C204.091 0.613383 198.433 0.284061 192.821 0.132332C190.245 0.0625021 187.671 0.0331908 185.096 0.017242C182.039 0 178.979 0 175.923 0H108.156H80.0809C77.0217 0 73.966 0 70.9099 0.017673C68.3335 0.0336218 65.7567 0.0629332 63.1842 0.132763C61.7816 0.170695 60.3759 0.219835 58.9694 0.28751C54.7503 0.490965 50.5247 0.863822 46.3642 1.61342C42.143 2.37206 38.1402 3.49107 34.2461 5.10103C32.9483 5.63726 31.662 6.22866 30.3835 6.87911C26.6127 8.79814 23.0824 11.1581 19.8715 13.9005C18.8012 14.8147 17.7663 15.7712 16.7697 16.7682C12.7808 20.7563 9.43755 25.3552 6.88014 30.3808C4.27488 35.4982 2.62396 40.7363 1.61186 46.3697C0.616133 51.9168 0.285088 57.5748 0.134221 63.1819C0.0635285 65.7595 0.0337861 68.3329 0.0169752 70.9076C-0.00242202 73.9654 0.000164278 77.0237 0.000164278 80.0807V121.814V175.922C0.000164278 178.982 -0.00285307 182.037 0.0169752 185.097C0.0337861 187.672 0.0635285 190.245 0.134221 192.819C0.285088 198.429 0.615702 204.088 1.61186 209.632C2.62396 215.264 4.27488 220.507 6.88014 225.623C9.43755 230.65 12.7808 235.248 16.7697 239.234C20.7556 243.224 25.3558 246.566 30.3839 249.126C35.4975 251.729 40.736 253.38 46.3655 254.391C51.9123 255.389 57.5745 255.721 63.1846 255.871C65.7571 255.94 68.3339 255.97 70.9103 255.985C73.9664 256.007 77.0222 256.004 80.0813 256.004H175.923C178.979 256.004 182.039 256.007 185.095 255.985C187.671 255.97 190.245 255.94 192.821 255.871C198.432 255.721 204.09 255.389 209.64 254.391C215.269 253.38 220.508 251.729 225.621 249.126C230.648 246.566 235.247 243.224 239.235 239.234C243.223 235.247 246.566 230.65 249.123 225.623C251.728 220.507 253.382 215.265 254.393 209.632C255.389 204.088 255.721 198.429 255.871 192.819C255.942 190.245 255.97 187.672 255.986 185.097C256.005 182.037 256.004 178.982 256.004 175.922V80.0807C256.004 77.0237 256.005 73.9654 255.986 70.908Z"
              fill="#F05138"/>
        <path d="M202.854 158.026C202.848 158.018 202.843 158.012 202.836 158.005C203.119 157.041 203.412 156.083 203.659 155.095C214.285 112.762 188.353 62.7133 144.47 36.3611C163.7 62.4306 172.203 94.0066 164.648 121.62C163.975 124.083 163.165 126.447 162.269 128.745C161.298 128.106 160.074 127.382 158.43 126.475C158.43 126.475 114.778 99.5232 67.4661 51.8513C66.2247 50.6 92.6945 89.6845 122.735 121.422C108.582 113.479 69.139 84.7813 44.1692 61.9275C47.237 67.0436 50.8858 71.9701 54.8967 76.7129C75.7487 103.157 102.942 135.786 135.521 160.84C112.631 174.849 80.2864 175.938 48.0823 160.855C40.1169 157.122 32.6287 152.618 25.697 147.501C39.3289 169.305 60.324 188.118 85.8771 199.101C116.35 212.196 146.653 211.308 169.223 199.315L169.205 199.341C169.308 199.276 169.439 199.205 169.546 199.139C170.473 198.641 171.393 198.133 172.292 197.598C183.136 191.969 204.555 186.258 216.052 208.627C218.867 214.102 224.85 185.09 202.854 158.026Z"
              fill="white"/>
    </g>
    <defs>
        <clipPath id="clip0_22_77">
            <rect width="256" height="256" fill="white"/>
        </clipPath>
    </defs>
</svg>
