<svg width="32" height="32" viewBox="0 0 32 32" fill="none" xmlns="http://www.w3.org/2000/svg">
    <path d="M27 2.5H5C4.33696 2.5 3.70107 2.76339 3.23223 3.23223C2.76339 3.70107 2.5 4.33696 2.5 5V27C2.5 27.663 2.76339 28.2989 3.23223 28.7678C3.70107 29.2366 4.33696 29.5 5 29.5H27C27.663 29.5 28.2989 29.2366 28.7678 28.7678C29.2366 28.2989 29.5 27.663 29.5 27V5C29.5 4.33696 29.2366 3.70107 28.7678 3.23223C28.2989 2.76339 27.663 2.5 27 2.5ZM26.5 26.5H5.5V5.5H26.5V26.5ZM14 22V15C14.0003 14.6883 14.0977 14.3844 14.2787 14.1306C14.4596 13.8768 14.7152 13.6856 15.0098 13.5838C15.3044 13.4819 15.6235 13.4743 15.9226 13.5622C16.2217 13.65 16.486 13.8288 16.6787 14.0737C17.4406 13.6744 18.2927 13.4784 19.1525 13.5046C20.0122 13.5308 20.8507 13.7784 21.5869 14.2235C22.323 14.6685 22.9318 15.2959 23.3546 16.0451C23.7773 16.7943 23.9996 17.6398 24 18.5V22C24 22.3978 23.842 22.7794 23.5607 23.0607C23.2794 23.342 22.8978 23.5 22.5 23.5C22.1022 23.5 21.7206 23.342 21.4393 23.0607C21.158 22.7794 21 22.3978 21 22V18.5C21 17.9696 20.7893 17.4609 20.4142 17.0858C20.0391 16.7107 19.5304 16.5 19 16.5C18.4696 16.5 17.9609 16.7107 17.5858 17.0858C17.2107 17.4609 17 17.9696 17 18.5V22C17 22.3978 16.842 22.7794 16.5607 23.0607C16.2794 23.342 15.8978 23.5 15.5 23.5C15.1022 23.5 14.7206 23.342 14.4393 23.0607C14.158 22.7794 14 22.3978 14 22ZM12 15V22C12 22.3978 11.842 22.7794 11.5607 23.0607C11.2794 23.342 10.8978 23.5 10.5 23.5C10.1022 23.5 9.72064 23.342 9.43934 23.0607C9.15804 22.7794 9 22.3978 9 22V15C9 14.6022 9.15804 14.2206 9.43934 13.9393C9.72064 13.658 10.1022 13.5 10.5 13.5C10.8978 13.5 11.2794 13.658 11.5607 13.9393C11.842 14.2206 12 14.6022 12 15ZM8.5 10C8.5 9.60444 8.6173 9.21776 8.83706 8.88886C9.05682 8.55996 9.36918 8.30362 9.73463 8.15224C10.1001 8.00087 10.5022 7.96126 10.8902 8.03843C11.2781 8.1156 11.6345 8.30608 11.9142 8.58579C12.1939 8.86549 12.3844 9.22186 12.4616 9.60982C12.5387 9.99778 12.4991 10.3999 12.3478 10.7654C12.1964 11.1308 11.94 11.4432 11.6111 11.6629C11.2822 11.8827 10.8956 12 10.5 12C9.96957 12 9.46086 11.7893 9.08579 11.4142C8.71071 11.0391 8.5 10.5304 8.5 10Z"
          fill="#343330"/>
</svg>
